<svg xmlns="http://www.w3.org/2000/svg" xmlns:xlink="http://www.w3.org/1999/xlink" width="720" zoomAndPan="magnify" viewBox="0 0 540 315.749992" height="421" preserveAspectRatio="xMidYMid meet" version="1.0"><defs><clipPath id="100406eddb"><path d="M 0.214844 0 L 539.785156 0 L 539.785156 315.5 L 0.214844 315.5 Z M 0.214844 0 " clip-rule="nonzero"/></clipPath><clipPath id="f5e4becac1"><path d="M 67.929688 79.511719 L 205.070312 79.511719 L 205.070312 236 L 67.929688 236 Z M 67.929688 79.511719 " clip-rule="nonzero"/></clipPath><clipPath id="1119405bde"><path d="M 270 0 L 539.785156 0 L 539.785156 315.5 L 270 315.5 Z M 270 0 " clip-rule="nonzero"/></clipPath><clipPath id="ac93c100fe"><path d="M 315 79.511719 L 458.886719 79.511719 L 458.886719 236.136719 L 315 236.136719 Z M 315 79.511719 " clip-rule="nonzero"/></clipPath></defs><g clip-path="url(#100406eddb)"><path fill="#ffffff" d="M 0.214844 0 L 539.785156 0 L 539.785156 315.5 L 0.214844 315.5 Z M 0.214844 0 " fill-opacity="1" fill-rule="nonzero"/><path fill="#ff914d" d="M 0.214844 0 L 539.785156 0 L 539.785156 315.5 L 0.214844 315.5 Z M 0.214844 0 " fill-opacity="1" fill-rule="nonzero"/></g><g clip-path="url(#f5e4becac1)"><path fill="#e44d26" d="M 80.378906 220.136719 L 67.890625 79.949219 L 205.109375 79.949219 L 192.613281 220.117188 L 136.414062 235.703125 Z M 80.378906 220.136719 " fill-opacity="1" fill-rule="nonzero"/></g><path fill="#f16529" d="M 181.90625 211.191406 L 192.59375 91.410156 L 136.5 91.410156 L 136.5 223.792969 Z M 181.90625 211.191406 " fill-opacity="1" fill-rule="nonzero"/><path fill="#ebebeb" d="M 136.441406 108.601562 L 93.421875 108.601562 L 98.058594 160.597656 L 136.5 160.597656 L 136.5 143.40625 L 113.769531 143.40625 L 112.199219 125.800781 L 136.5 125.800781 L 136.5 108.601562 Z M 136.5 188 L 136.425781 188.019531 L 117.296875 182.851562 L 116.078125 169.140625 L 98.824219 169.140625 L 101.234375 196.136719 L 136.421875 205.871094 L 136.5 205.84375 Z M 136.5 188 " fill-opacity="1" fill-rule="nonzero"/><path fill="#ffffff" d="M 136.441406 160.597656 L 157.597656 160.597656 L 155.652344 182.890625 L 136.492188 188.066406 L 136.492188 205.953125 L 171.710938 196.183594 L 176.425781 143.394531 L 136.5 143.394531 Z M 179.0625 113.21875 L 179.472656 108.601562 L 136.433594 108.601562 L 136.433594 125.792969 L 177.925781 125.792969 L 178.265625 121.929688 Z M 179.0625 113.21875 " fill-opacity="1" fill-rule="nonzero"/><g clip-path="url(#1119405bde)"><path fill="#38b6ff" d="M 270 0 L 540.992188 0 L 540.992188 315.449219 L 270 315.449219 Z M 270 0 " fill-opacity="1" fill-rule="nonzero"/></g><g clip-path="url(#ac93c100fe)"><path fill="#2196f3" d="M 457.976562 80.582031 C 457.328125 79.863281 456.519531 79.507812 455.550781 79.511719 L 318.335938 79.511719 C 318.105469 79.507812 317.878906 79.53125 317.65625 79.578125 C 317.429688 79.625 317.214844 79.695312 317.003906 79.785156 C 316.796875 79.878906 316.597656 79.988281 316.410156 80.125 C 316.226562 80.257812 316.054688 80.410156 315.902344 80.578125 C 315.746094 80.746094 315.613281 80.929688 315.496094 81.128906 C 315.382812 81.324219 315.289062 81.53125 315.21875 81.75 C 315.144531 81.96875 315.097656 82.191406 315.070312 82.417969 C 315.046875 82.644531 315.046875 82.871094 315.070312 83.097656 L 328.136719 213.621094 C 328.199219 214.261719 328.433594 214.832031 328.832031 215.335938 C 329.234375 215.835938 329.742188 216.191406 330.351562 216.394531 L 389.160156 235.972656 C 389.5 236.082031 389.851562 236.136719 390.210938 236.136719 C 390.605469 236.136719 390.988281 236.066406 391.359375 235.925781 L 443.632812 216.347656 C 444.21875 216.132812 444.699219 215.777344 445.082031 215.289062 C 445.464844 214.796875 445.6875 214.238281 445.75 213.621094 L 458.820312 83.097656 C 458.914062 82.132812 458.632812 81.292969 457.976562 80.582031 Z M 457.976562 80.582031 " fill-opacity="1" fill-rule="nonzero"/></g><path fill="#fafafa" d="M 390.210938 203.503906 C 389.859375 203.503906 389.515625 203.449219 389.179688 203.34375 L 359.773438 193.554688 C 359.21875 193.367188 358.75 193.058594 358.359375 192.621094 C 357.972656 192.183594 357.722656 191.679688 357.605469 191.105469 L 354.339844 174.789062 C 354.25 174.367188 354.25 173.941406 354.332031 173.515625 C 354.414062 173.09375 354.574219 172.699219 354.8125 172.335938 C 355.050781 171.976562 355.351562 171.675781 355.710938 171.433594 C 356.070312 171.191406 356.460938 171.027344 356.886719 170.9375 C 357.3125 170.851562 357.738281 170.851562 358.160156 170.933594 C 358.585938 171.015625 358.980469 171.175781 359.34375 171.414062 C 359.703125 171.652344 360.007812 171.953125 360.25 172.3125 C 360.492188 172.667969 360.65625 173.0625 360.742188 173.484375 L 363.636719 187.941406 L 390.144531 196.785156 L 413.445312 188.058594 L 425.535156 118.667969 L 351.007812 118.667969 C 350.574219 118.667969 350.15625 118.582031 349.757812 118.417969 C 349.355469 118.253906 349.003906 118.015625 348.695312 117.710938 C 348.390625 117.40625 348.152344 117.050781 347.988281 116.652344 C 347.820312 116.253906 347.738281 115.835938 347.738281 115.402344 C 347.738281 114.96875 347.820312 114.554688 347.988281 114.15625 C 348.152344 113.753906 348.390625 113.402344 348.695312 113.097656 C 349.003906 112.789062 349.355469 112.554688 349.757812 112.386719 C 350.15625 112.222656 350.574219 112.140625 351.007812 112.140625 L 429.414062 112.140625 C 429.652344 112.140625 429.890625 112.164062 430.121094 112.21875 C 430.355469 112.269531 430.578125 112.34375 430.796875 112.445312 C 431.011719 112.542969 431.214844 112.667969 431.402344 112.8125 C 431.59375 112.957031 431.765625 113.121094 431.917969 113.300781 C 432.070312 113.484375 432.203125 113.679688 432.3125 113.894531 C 432.425781 114.105469 432.511719 114.324219 432.574219 114.554688 C 432.636719 114.785156 432.671875 115.019531 432.683594 115.253906 C 432.691406 115.492188 432.675781 115.730469 432.636719 115.964844 L 419.570312 191.015625 C 419.46875 191.582031 419.234375 192.089844 418.863281 192.535156 C 418.496094 192.980469 418.039062 193.304688 417.496094 193.507812 L 391.359375 203.296875 C 390.988281 203.4375 390.605469 203.503906 390.210938 203.503906 Z M 390.210938 203.503906 " fill-opacity="1" fill-rule="nonzero"/><path fill="#fafafa" d="M 422.882812 151.296875 L 354.273438 151.296875 C 353.839844 151.296875 353.421875 151.214844 353.023438 151.046875 C 352.621094 150.882812 352.269531 150.648438 351.964844 150.339844 C 351.65625 150.035156 351.421875 149.683594 351.253906 149.28125 C 351.089844 148.882812 351.007812 148.464844 351.007812 148.035156 C 351.007812 147.601562 351.089844 147.183594 351.253906 146.785156 C 351.421875 146.386719 351.65625 146.03125 351.964844 145.726562 C 352.269531 145.421875 352.621094 145.183594 353.023438 145.019531 C 353.421875 144.851562 353.839844 144.769531 354.273438 144.769531 L 422.882812 144.769531 C 423.3125 144.769531 423.730469 144.851562 424.132812 145.019531 C 424.53125 145.183594 424.886719 145.421875 425.191406 145.726562 C 425.496094 146.03125 425.734375 146.386719 425.898438 146.785156 C 426.066406 147.183594 426.148438 147.601562 426.148438 148.035156 C 426.148438 148.464844 426.066406 148.882812 425.898438 149.28125 C 425.734375 149.683594 425.496094 150.035156 425.191406 150.339844 C 424.886719 150.648438 424.53125 150.882812 424.132812 151.046875 C 423.730469 151.214844 423.3125 151.296875 422.882812 151.296875 Z M 422.882812 151.296875 " fill-opacity="1" fill-rule="nonzero"/></svg>