<svg xmlns="http://www.w3.org/2000/svg" xmlns:xlink="http://www.w3.org/1999/xlink" width="720" zoomAndPan="magnify" viewBox="0 0 540 315.749992" height="421" preserveAspectRatio="xMidYMid meet" version="1.0"><defs><clipPath id="85191ef83c"><path d="M 0.214844 0 L 539.785156 0 L 539.785156 315.5 L 0.214844 315.5 Z M 0.214844 0 " clip-rule="nonzero"/></clipPath><clipPath id="a867a73ecf"><path d="M 206.898438 94.648438 L 332.800781 94.648438 L 332.800781 220.550781 L 206.898438 220.550781 Z M 206.898438 94.648438 " clip-rule="nonzero"/></clipPath></defs><g clip-path="url(#85191ef83c)"><path fill="#ffffff" d="M 0.214844 0 L 539.785156 0 L 539.785156 315.5 L 0.214844 315.5 Z M 0.214844 0 " fill-opacity="1" fill-rule="nonzero"/><path fill="#8c52ff" d="M 0.214844 0 L 539.785156 0 L 539.785156 315.5 L 0.214844 315.5 Z M 0.214844 0 " fill-opacity="1" fill-rule="nonzero"/></g><g clip-path="url(#a867a73ecf)"><path fill="#543b79" d="M 322.308594 94.648438 L 217.390625 94.648438 C 211.601562 94.648438 206.898438 99.34375 206.898438 105.140625 L 206.898438 210.058594 C 206.898438 215.855469 211.601562 220.550781 217.390625 220.550781 L 322.308594 220.550781 C 328.101562 220.550781 332.800781 215.855469 332.800781 210.058594 L 332.800781 105.140625 C 332.800781 99.34375 328.101562 94.648438 322.308594 94.648438 Z M 300.34375 183.058594 L 300.34375 183.070312 C 299.296875 185.597656 297.632812 187.828125 295.503906 189.542969 C 293.300781 191.324219 290.507812 192.792969 287.070312 193.84375 C 283.640625 194.910156 279.558594 195.445312 274.832031 195.445312 L 241.09375 195.445312 L 241.09375 122 L 276.773438 122 C 283.375 122 288.660156 123.488281 292.617188 126.511719 C 296.605469 129.554688 298.585938 134.089844 298.585938 140.203125 C 298.585938 143.902344 297.683594 147.078125 295.871094 149.699219 C 294.066406 152.308594 291.464844 154.347656 288.105469 155.765625 L 288.105469 156.003906 C 292.585938 156.949219 296.054688 159.074219 298.335938 162.378906 C 300.617188 165.683594 301.785156 169.859375 301.785156 174.902344 C 301.785156 177.722656 301.242188 180.410156 300.214844 182.917969 Z M 300.34375 183.058594 " fill-opacity="1" fill-rule="nonzero"/></g><path fill="#543b79" d="M 285.78125 164.96875 C 283.632812 163.003906 280.609375 162.042969 276.707031 162.042969 L 254.035156 162.042969 L 254.035156 184.957031 L 276.769531 184.957031 C 280.652344 184.957031 283.695312 183.949219 285.84375 181.914062 C 287.996094 179.894531 289.097656 177.015625 289.097656 173.3125 C 289.058594 169.691406 287.996094 166.890625 285.84375 164.96875 Z M 285.78125 164.96875 " fill-opacity="1" fill-rule="nonzero"/><path fill="#543b79" d="M 282.613281 150.160156 L 282.632812 150.160156 C 284.710938 148.398438 285.730469 145.875 285.730469 142.585938 C 285.730469 138.894531 284.8125 136.269531 282.949219 134.769531 C 281.101562 133.273438 278.4375 132.5 274.933594 132.5 L 253.949219 132.5 L 253.949219 152.761719 L 274.933594 152.761719 C 277.992188 152.761719 280.597656 151.871094 282.613281 150.160156 Z M 282.613281 150.160156 " fill-opacity="1" fill-rule="nonzero"/></svg>