<svg xmlns="http://www.w3.org/2000/svg" xmlns:xlink="http://www.w3.org/1999/xlink" width="400" zoomAndPan="magnify" viewBox="0 0 980.25 647.999998" height="400" preserveAspectRatio="xMidYMid meet" version="1.0"><defs><clipPath id="3f7cda95a0"><path d="M 0 0.476562 L 979.5 0.476562 L 979.5 647.511719 L 0 647.511719 Z M 0 0.476562 " clip-rule="nonzero"/></clipPath></defs><path fill="#ffffff" d="M 68.21875 50.144531 L 624.828125 50.144531 L 624.828125 36.511719 C 624.828125 24.589844 615.128906 14.890625 603.203125 14.890625 L 36.046875 14.890625 C 24.121094 14.890625 14.417969 24.589844 14.417969 36.511719 L 14.417969 521.96875 C 14.417969 533.886719 24.121094 543.589844 36.046875 543.589844 L 46.59375 543.589844 L 46.59375 71.765625 C 46.59375 59.839844 56.292969 50.144531 68.21875 50.144531 " fill-opacity="1" fill-rule="nonzero"/><path fill="#97e2ff" d="M 624.832031 79.703125 L 624.832031 50.140625 L 68.21875 50.140625 C 56.292969 50.140625 46.59375 59.839844 46.59375 71.761719 L 46.59375 543.589844 L 70.457031 543.589844 L 70.457031 115.738281 C 70.457031 95.871094 86.628906 79.703125 106.5 79.703125 L 624.832031 79.703125 " fill-opacity="1" fill-rule="nonzero"/><path fill="#ff7d7d" d="M 198.746094 123.613281 C 199.199219 123.070312 199.679688 122.546875 200.179688 122.039062 C 199.679688 122.546875 199.199219 123.070312 198.746094 123.613281 " fill-opacity="1" fill-rule="nonzero"/><path fill="#ff7d7d" d="M 197.292969 125.53125 C 197.71875 124.917969 198.164062 124.308594 198.640625 123.730469 C 198.164062 124.308594 197.71875 124.917969 197.292969 125.53125 " fill-opacity="1" fill-rule="nonzero"/><path fill="#ff7d7d" d="M 166.28125 126.148438 C 166.574219 126.597656 166.855469 127.058594 167.121094 127.53125 C 166.855469 127.058594 166.574219 126.597656 166.28125 126.148438 " fill-opacity="1" fill-rule="nonzero"/><path fill="#ff7d7d" d="M 219.046875 114.085938 C 219.867188 114.085938 220.675781 114.132812 221.476562 114.210938 C 220.675781 114.132812 219.867188 114.085938 219.046875 114.085938 " fill-opacity="1" fill-rule="nonzero"/><path fill="#ff7d7d" d="M 167.488281 128.1875 C 167.8125 128.800781 168.117188 129.421875 168.394531 130.0625 C 168.117188 129.421875 167.8125 128.800781 167.488281 128.1875 " fill-opacity="1" fill-rule="nonzero"/><path fill="#ff7d7d" d="M 194.773438 130.0625 C 195.050781 129.421875 195.359375 128.796875 195.683594 128.183594 C 195.359375 128.796875 195.050781 129.421875 194.773438 130.0625 " fill-opacity="1" fill-rule="nonzero"/><path fill="#ff7d7d" d="M 196.046875 127.53125 C 196.316406 127.0625 196.597656 126.597656 196.890625 126.140625 C 196.597656 126.597656 196.316406 127.058594 196.046875 127.53125 " fill-opacity="1" fill-rule="nonzero"/><path fill="#ff7d7d" d="M 211.222656 115.269531 C 211.957031 115.042969 212.707031 114.855469 213.464844 114.691406 C 212.707031 114.855469 211.957031 115.042969 211.222656 115.269531 " fill-opacity="1" fill-rule="nonzero"/><path fill="#ff7d7d" d="M 214.160156 114.558594 C 214.734375 114.449219 215.3125 114.363281 215.898438 114.292969 C 215.3125 114.363281 214.734375 114.449219 214.160156 114.558594 " fill-opacity="1" fill-rule="nonzero"/><path fill="#ff7d7d" d="M 200.691406 121.535156 C 201.085938 121.152344 201.492188 120.785156 201.910156 120.429688 C 201.492188 120.785156 201.085938 121.152344 200.691406 121.535156 " fill-opacity="1" fill-rule="nonzero"/><path fill="#ff7d7d" d="M 209.007812 116.074219 C 209.71875 115.785156 210.445312 115.507812 211.191406 115.28125 C 210.445312 115.507812 209.71875 115.785156 209.007812 116.074219 " fill-opacity="1" fill-rule="nonzero"/><path fill="#ff7d7d" d="M 206.84375 117.09375 C 207.34375 116.832031 207.851562 116.585938 208.367188 116.355469 C 207.851562 116.585938 207.34375 116.832031 206.84375 117.09375 " fill-opacity="1" fill-rule="nonzero"/><path fill="#ff7d7d" d="M 202.449219 119.972656 C 203.039062 119.496094 203.636719 119.039062 204.265625 118.609375 C 203.636719 119.039062 203.039062 119.496094 202.449219 119.972656 " fill-opacity="1" fill-rule="nonzero"/><path fill="#ff7d7d" d="M 204.34375 118.566406 C 204.949219 118.15625 205.582031 117.777344 206.226562 117.421875 C 205.582031 117.777344 204.949219 118.15625 204.34375 118.566406 " fill-opacity="1" fill-rule="nonzero"/><path fill="#ff7d7d" d="M 216.613281 114.210938 C 217.414062 114.132812 218.222656 114.085938 219.046875 114.085938 C 218.222656 114.085938 217.414062 114.132812 216.613281 114.210938 " fill-opacity="1" fill-rule="nonzero"/><path fill="#ff7d7d" d="M 144.125 114.085938 C 144.945312 114.085938 145.753906 114.132812 146.558594 114.210938 C 145.753906 114.132812 144.945312 114.085938 144.125 114.085938 " fill-opacity="1" fill-rule="nonzero"/><path fill="#ff7d7d" d="M 147.269531 114.292969 C 147.855469 114.363281 148.4375 114.449219 149.011719 114.558594 C 148.4375 114.449219 147.855469 114.363281 147.269531 114.292969 " fill-opacity="1" fill-rule="nonzero"/><path fill="#ff7d7d" d="M 149.703125 114.691406 C 150.460938 114.855469 151.214844 115.042969 151.949219 115.269531 C 151.214844 115.042969 150.460938 114.855469 149.703125 114.691406 " fill-opacity="1" fill-rule="nonzero"/><path fill="#ff7d7d" d="M 117.800781 142.671875 C 117.742188 141.957031 117.691406 141.238281 117.691406 140.511719 C 117.691406 141.238281 117.734375 141.960938 117.800781 142.671875 " fill-opacity="1" fill-rule="nonzero"/><path fill="#ff7d7d" d="M 682.132812 125.324219 C 682.125 125.324219 682.117188 125.328125 682.113281 125.332031 C 682.117188 125.328125 682.125 125.324219 682.132812 125.324219 " fill-opacity="1" fill-rule="nonzero"/><path fill="#ff7d7d" d="M 688.675781 123.34375 C 688.480469 123.398438 688.285156 123.46875 688.085938 123.519531 C 688.285156 123.46875 688.480469 123.398438 688.675781 123.34375 " fill-opacity="1" fill-rule="nonzero"/><path fill="#ff7d7d" d="M 162.996094 122.042969 C 163.484375 122.539062 163.957031 123.058594 164.40625 123.59375 C 163.957031 123.058594 163.484375 122.539062 162.996094 122.042969 " fill-opacity="1" fill-rule="nonzero"/><path fill="#ff7d7d" d="M 161.261719 120.433594 C 161.679688 120.785156 162.082031 121.152344 162.472656 121.535156 C 162.082031 121.152344 161.679688 120.785156 161.261719 120.433594 " fill-opacity="1" fill-rule="nonzero"/><path fill="#ff7d7d" d="M 158.902344 118.617188 C 159.53125 119.039062 160.132812 119.496094 160.71875 119.972656 C 160.132812 119.496094 159.53125 119.039062 158.902344 118.617188 " fill-opacity="1" fill-rule="nonzero"/><path fill="#ff7d7d" d="M 164.546875 123.757812 C 165.015625 124.328125 165.453125 124.921875 165.875 125.53125 C 165.453125 124.921875 165.015625 124.328125 164.546875 123.757812 " fill-opacity="1" fill-rule="nonzero"/><path fill="#ff7d7d" d="M 156.941406 117.421875 C 157.585938 117.777344 158.214844 118.152344 158.820312 118.5625 C 158.210938 118.152344 157.585938 117.777344 156.941406 117.421875 " fill-opacity="1" fill-rule="nonzero"/><path fill="#ff7d7d" d="M 154.800781 116.355469 C 155.316406 116.585938 155.824219 116.832031 156.324219 117.089844 C 155.824219 116.832031 155.316406 116.585938 154.800781 116.355469 " fill-opacity="1" fill-rule="nonzero"/><path fill="#ff7d7d" d="M 151.980469 115.28125 C 152.722656 115.507812 153.449219 115.785156 154.164062 116.074219 C 153.449219 115.785156 152.722656 115.507812 151.980469 115.28125 " fill-opacity="1" fill-rule="nonzero"/><path fill="#ff7d7d" d="M 239.464844 123.757812 C 239.9375 124.328125 240.371094 124.921875 240.792969 125.53125 C 240.371094 124.921875 239.9375 124.328125 239.464844 123.757812 " fill-opacity="1" fill-rule="nonzero"/><path fill="#ff7d7d" d="M 237.914062 122.042969 C 238.402344 122.539062 238.878906 123.058594 239.324219 123.59375 C 238.878906 123.058594 238.402344 122.539062 237.914062 122.042969 " fill-opacity="1" fill-rule="nonzero"/><path fill="#ff7d7d" d="M 236.183594 120.433594 C 236.597656 120.785156 237.003906 121.152344 237.394531 121.535156 C 237.003906 121.152344 236.597656 120.785156 236.183594 120.433594 " fill-opacity="1" fill-rule="nonzero"/><path fill="#ff7d7d" d="M 241.199219 126.148438 C 241.496094 126.597656 241.773438 127.058594 242.042969 127.53125 C 241.773438 127.058594 241.496094 126.597656 241.199219 126.148438 " fill-opacity="1" fill-rule="nonzero"/><path fill="#ff7d7d" d="M 222.1875 114.292969 C 222.777344 114.363281 223.355469 114.449219 223.929688 114.558594 C 223.355469 114.449219 222.777344 114.363281 222.1875 114.292969 " fill-opacity="1" fill-rule="nonzero"/><path fill="#ff7d7d" d="M 242.410156 128.1875 C 242.734375 128.800781 243.035156 129.421875 243.3125 130.0625 C 243.035156 129.421875 242.734375 128.800781 242.410156 128.1875 " fill-opacity="1" fill-rule="nonzero"/><path fill="#ff7d7d" d="M 231.863281 117.421875 C 232.503906 117.777344 233.132812 118.152344 233.738281 118.5625 C 233.132812 118.152344 232.503906 117.777344 231.863281 117.421875 " fill-opacity="1" fill-rule="nonzero"/><path fill="#ff7d7d" d="M 233.824219 118.617188 C 234.449219 119.039062 235.050781 119.496094 235.640625 119.972656 C 235.050781 119.496094 234.449219 119.039062 233.824219 118.617188 " fill-opacity="1" fill-rule="nonzero"/><path fill="#ff7d7d" d="M 226.898438 115.28125 C 227.644531 115.507812 228.367188 115.785156 229.082031 116.074219 C 228.367188 115.785156 227.644531 115.507812 226.898438 115.28125 " fill-opacity="1" fill-rule="nonzero"/><path fill="#ff7d7d" d="M 229.722656 116.355469 C 230.238281 116.585938 230.742188 116.832031 231.242188 117.089844 C 230.742188 116.832031 230.238281 116.585938 229.722656 116.355469 " fill-opacity="1" fill-rule="nonzero"/><path fill="#ff7d7d" d="M 224.625 114.691406 C 225.382812 114.855469 226.132812 115.042969 226.867188 115.269531 C 226.132812 115.042969 225.382812 114.855469 224.625 114.691406 " fill-opacity="1" fill-rule="nonzero"/><path fill="#ffffff" d="M 84.875 115.738281 L 84.875 182.714844 L 116.71875 182.714844 L 116.71875 151.886719 C 116.71875 149.300781 117.195312 146.839844 118.03125 144.539062 C 118.03125 144.535156 118.03125 144.535156 118.03125 144.53125 C 117.9375 143.917969 117.851562 143.300781 117.800781 142.671875 C 117.734375 141.957031 117.691406 141.242188 117.691406 140.511719 C 117.691406 125.941406 129.546875 114.089844 144.125 114.089844 C 144.945312 114.089844 145.753906 114.136719 146.554688 114.210938 C 146.796875 114.234375 147.03125 114.265625 147.269531 114.292969 C 147.855469 114.363281 148.4375 114.453125 149.011719 114.558594 C 149.242188 114.601562 149.476562 114.644531 149.703125 114.691406 C 150.460938 114.859375 151.214844 115.042969 151.949219 115.273438 C 151.957031 115.273438 151.96875 115.273438 151.980469 115.277344 C 152.722656 115.507812 153.449219 115.785156 154.164062 116.078125 C 154.375 116.167969 154.585938 116.265625 154.800781 116.359375 C 155.316406 116.589844 155.824219 116.832031 156.324219 117.09375 C 156.53125 117.203125 156.738281 117.308594 156.941406 117.421875 C 157.585938 117.777344 158.210938 118.15625 158.820312 118.5625 C 158.847656 118.578125 158.875 118.597656 158.902344 118.613281 C 159.53125 119.039062 160.132812 119.496094 160.71875 119.976562 C 160.902344 120.125 161.082031 120.277344 161.261719 120.4375 C 161.675781 120.789062 162.082031 121.15625 162.472656 121.535156 C 162.648438 121.703125 162.824219 121.867188 162.992188 122.042969 C 163.484375 122.542969 163.957031 123.058594 164.40625 123.597656 C 164.453125 123.648438 164.5 123.703125 164.546875 123.757812 C 165.015625 124.328125 165.453125 124.921875 165.875 125.53125 C 166.015625 125.730469 166.144531 125.941406 166.28125 126.148438 C 166.574219 126.601562 166.855469 127.0625 167.121094 127.53125 C 167.246094 127.75 167.371094 127.964844 167.488281 128.1875 C 167.8125 128.804688 168.117188 129.425781 168.394531 130.066406 C 168.421875 130.132812 168.460938 130.195312 168.488281 130.265625 L 194.683594 130.265625 C 194.710938 130.195312 194.746094 130.132812 194.773438 130.066406 C 195.050781 129.425781 195.359375 128.796875 195.683594 128.1875 C 195.800781 127.964844 195.921875 127.75 196.046875 127.535156 C 196.316406 127.0625 196.597656 126.597656 196.890625 126.140625 C 197.023438 125.941406 197.152344 125.738281 197.292969 125.535156 C 197.71875 124.917969 198.164062 124.3125 198.640625 123.734375 C 198.675781 123.691406 198.710938 123.65625 198.746094 123.613281 C 199.199219 123.070312 199.679688 122.546875 200.175781 122.039062 C 200.34375 121.867188 200.519531 121.707031 200.691406 121.539062 C 201.085938 121.15625 201.492188 120.785156 201.910156 120.429688 C 202.089844 120.277344 202.265625 120.125 202.449219 119.976562 C 203.039062 119.496094 203.636719 119.039062 204.265625 118.613281 C 204.289062 118.597656 204.316406 118.585938 204.34375 118.566406 C 204.949219 118.15625 205.582031 117.777344 206.226562 117.421875 C 206.429688 117.308594 206.636719 117.203125 206.84375 117.09375 C 207.34375 116.832031 207.851562 116.589844 208.367188 116.359375 C 208.582031 116.265625 208.792969 116.167969 209.007812 116.078125 C 209.71875 115.785156 210.445312 115.507812 211.1875 115.277344 C 211.199219 115.273438 211.210938 115.273438 211.222656 115.273438 C 211.957031 115.042969 212.707031 114.859375 213.464844 114.691406 C 213.695312 114.644531 213.925781 114.601562 214.160156 114.558594 C 214.730469 114.453125 215.3125 114.363281 215.898438 114.292969 C 216.136719 114.265625 216.371094 114.234375 216.613281 114.210938 C 217.414062 114.136719 218.222656 114.089844 219.042969 114.089844 C 219.863281 114.089844 220.675781 114.136719 221.476562 114.210938 C 221.714844 114.234375 221.949219 114.265625 222.1875 114.292969 C 222.777344 114.363281 223.355469 114.453125 223.929688 114.558594 C 224.164062 114.601562 224.394531 114.644531 224.625 114.691406 C 225.382812 114.859375 226.132812 115.042969 226.867188 115.273438 C 226.878906 115.273438 226.890625 115.273438 226.898438 115.277344 C 227.644531 115.507812 228.367188 115.785156 229.082031 116.078125 C 229.296875 116.167969 229.507812 116.265625 229.722656 116.359375 C 230.238281 116.589844 230.742188 116.832031 231.242188 117.09375 C 231.449219 117.203125 231.65625 117.308594 231.863281 117.421875 C 232.503906 117.777344 233.132812 118.15625 233.738281 118.5625 C 233.765625 118.578125 233.796875 118.597656 233.824219 118.613281 C 234.449219 119.039062 235.050781 119.496094 235.640625 119.976562 C 235.824219 120.125 236 120.277344 236.183594 120.4375 C 236.597656 120.789062 237 121.15625 237.394531 121.535156 C 237.570312 121.703125 237.746094 121.867188 237.914062 122.042969 C 238.402344 122.542969 238.875 123.058594 239.324219 123.597656 C 239.371094 123.648438 239.421875 123.703125 239.464844 123.757812 C 239.9375 124.328125 240.371094 124.921875 240.792969 125.53125 C 240.933594 125.730469 241.066406 125.941406 241.199219 126.148438 C 241.496094 126.601562 241.773438 127.0625 242.039062 127.53125 C 242.164062 127.75 242.289062 127.964844 242.410156 128.1875 C 242.734375 128.804688 243.035156 129.425781 243.3125 130.066406 C 243.34375 130.132812 243.378906 130.195312 243.40625 130.265625 L 669.539062 130.265625 C 673.621094 128.40625 677.816406 126.75 682.113281 125.328125 C 682.125 125.328125 682.125 125.324219 682.132812 125.324219 C 684.09375 124.671875 686.082031 124.082031 688.082031 123.527344 C 688.277344 123.472656 688.476562 123.402344 688.675781 123.347656 C 690.871094 122.75 693.089844 122.210938 695.335938 121.726562 L 695.335938 115.738281 C 695.335938 103.816406 685.628906 94.117188 673.707031 94.117188 L 106.5 94.117188 C 94.574219 94.117188 84.875 103.816406 84.875 115.738281 " fill-opacity="1" fill-rule="nonzero"/><path fill="#ff7d7d" d="M 245.480469 140.511719 C 245.480469 155.082031 233.621094 166.9375 219.046875 166.9375 C 204.46875 166.9375 192.613281 155.082031 192.613281 140.511719 C 192.613281 136.878906 193.351562 133.417969 194.683594 130.265625 L 168.488281 130.265625 C 169.820312 133.417969 170.558594 136.878906 170.558594 140.511719 C 170.558594 155.082031 158.703125 166.9375 144.125 166.9375 C 130.917969 166.9375 119.976562 157.195312 118.03125 144.53125 C 118.03125 144.53125 118.03125 144.539062 118.03125 144.539062 C 117.199219 146.835938 116.71875 149.300781 116.71875 151.882812 L 116.71875 182.714844 L 611.910156 182.714844 C 625.121094 159.761719 645.296875 141.304688 669.539062 130.265625 L 243.40625 130.265625 C 244.738281 133.417969 245.480469 136.878906 245.480469 140.511719 " fill-opacity="1" fill-rule="nonzero"/><path fill="#ff7d7d" d="M 748.21875 399.914062 C 747.085938 399.4375 745.957031 398.941406 744.839844 398.414062 C 745.957031 398.941406 747.085938 399.4375 748.21875 399.914062 " fill-opacity="1" fill-rule="nonzero"/><path fill="#ff7d7d" d="M 751.726562 401.273438 C 750.699219 400.902344 749.679688 400.503906 748.671875 400.089844 C 749.679688 400.503906 750.703125 400.902344 751.726562 401.273438 " fill-opacity="1" fill-rule="nonzero"/><path fill="#ffffff" d="M 742.910156 383.996094 C 732.511719 365.980469 729.738281 344.996094 735.125 324.910156 C 740.507812 304.820312 753.394531 288.046875 771.421875 277.664062 C 779.335938 273.082031 787.871094 270.003906 796.636719 268.441406 C 797.171875 266.6875 797.667969 264.914062 798.078125 263.117188 C 798.800781 259.863281 799.300781 256.59375 799.617188 253.339844 C 779.398438 247.519531 757.722656 250.113281 739.363281 260.734375 C 721.335938 271.117188 708.449219 287.894531 703.066406 307.980469 C 697.683594 328.066406 700.449219 349.050781 710.855469 367.066406 C 718.730469 380.789062 730.488281 391.628906 744.84375 398.414062 C 745.957031 398.9375 747.085938 399.4375 748.21875 399.910156 C 748.371094 399.972656 748.523438 400.027344 748.671875 400.089844 C 749.683594 400.5 750.703125 400.898438 751.730469 401.273438 C 751.789062 401.292969 751.855469 401.3125 751.917969 401.335938 C 754.210938 402.15625 756.53125 402.863281 758.878906 403.46875 C 752.574219 397.929688 747.164062 391.402344 742.910156 383.996094 " fill-opacity="1" fill-rule="nonzero"/><path fill="#ff7d7d" d="M 944.816406 540.222656 C 941.375 542.207031 936.96875 541.027344 934.972656 537.585938 L 922.621094 516.253906 C 921.664062 514.601562 921.402344 512.632812 921.898438 510.785156 C 922.390625 508.9375 923.601562 507.367188 925.261719 506.40625 L 934.722656 500.929688 L 926.46875 486.652344 L 902.285156 500.625 C 900.628906 501.585938 898.660156 501.84375 896.816406 501.351562 C 894.96875 500.855469 893.390625 499.648438 892.433594 497.992188 L 831.492188 392.433594 C 829.851562 389.582031 830.347656 385.976562 832.703125 383.675781 C 858.132812 358.835938 863.488281 319.976562 845.722656 289.183594 C 844.789062 287.574219 843.792969 286.015625 842.765625 284.492188 C 834.328125 310.949219 817.140625 334.191406 793.960938 350.257812 C 792.710938 351.121094 791.277344 351.539062 789.851562 351.539062 C 787.832031 351.539062 785.84375 350.695312 784.425781 349.078125 L 761.488281 322.847656 C 760.09375 321.257812 759.472656 319.132812 759.78125 317.039062 C 760.101562 314.945312 761.316406 313.097656 763.117188 311.980469 C 779.179688 302.019531 791.164062 286.351562 796.636719 268.441406 C 787.875 270.003906 779.335938 273.082031 771.425781 277.660156 C 753.398438 288.042969 740.507812 304.820312 735.128906 324.90625 C 729.742188 344.996094 732.511719 365.980469 742.917969 383.996094 C 747.167969 391.402344 752.578125 397.929688 758.882812 403.46875 C 756.53125 402.863281 754.210938 402.152344 751.921875 401.335938 C 767.082031 406.773438 783.59375 407.410156 799.164062 403.03125 C 802.335938 402.144531 805.710938 403.511719 807.359375 406.367188 L 918.765625 599.226562 L 942.898438 585.296875 L 935.691406 572.855469 C 934.734375 571.199219 934.476562 569.230469 934.972656 567.382812 C 935.460938 565.535156 936.671875 563.960938 938.332031 563.003906 L 962.464844 549.070312 L 954.238281 534.789062 L 944.816406 540.222656 " fill-opacity="1" fill-rule="nonzero"/><path fill="#ffffff" d="M 616.867188 425.84375 C 616.867188 461.886719 587.53125 491.210938 551.476562 491.210938 L 228.730469 491.210938 C 192.671875 491.210938 163.339844 461.886719 163.339844 425.84375 L 163.339844 412.828125 C 163.339844 376.785156 192.671875 347.460938 228.730469 347.460938 L 551.476562 347.460938 C 587.53125 347.460938 616.867188 376.785156 616.867188 412.828125 Z M 665.90625 411.425781 C 633.855469 396.21875 613.144531 363.523438 613.144531 328.121094 C 613.144531 323.019531 613.589844 317.972656 614.421875 313.023438 C 601.75 292.859375 595.054688 269.679688 595.054688 245.773438 C 595.054688 228.546875 598.519531 212.121094 604.765625 197.132812 L 84.875 197.132812 L 84.875 601.148438 C 84.875 613.070312 94.574219 622.769531 106.5 622.769531 L 673.707031 622.769531 C 674.84375 622.769531 675.964844 622.664062 677.066406 622.492188 L 677.066406 415.851562 C 673.488281 414.691406 669.90625 413.28125 666.375 411.625 C 666.21875 411.5625 666.058594 411.496094 665.90625 411.425781 " fill-opacity="1" fill-rule="nonzero"/><path fill="#ffffff" d="M 132.109375 140.511719 C 132.109375 147.136719 137.5 152.523438 144.125 152.523438 C 150.75 152.523438 156.140625 147.136719 156.140625 140.511719 C 156.140625 133.890625 150.75 128.5 144.125 128.5 C 137.5 128.5 132.109375 133.890625 132.109375 140.511719 " fill-opacity="1" fill-rule="nonzero"/><path fill="#ffffff" d="M 704.394531 134.683594 C 704.046875 134.777344 703.695312 134.839844 703.328125 134.878906 C 650.140625 143.789062 609.472656 190.109375 609.472656 245.769531 C 609.472656 262.339844 613.09375 278.515625 620.039062 293.324219 C 623.320312 285.332031 627.703125 277.824219 633.039062 271.046875 C 630.695312 262.855469 629.507812 254.375 629.507812 245.769531 C 629.507812 194.804688 670.992188 153.335938 721.972656 153.335938 C 772.957031 153.335938 814.433594 194.804688 814.433594 245.769531 C 814.433594 246.65625 814.429688 247.601562 814.378906 248.492188 C 814.21875 254.351562 813.46875 260.335938 812.144531 266.277344 C 807.335938 287.425781 794.945312 306.394531 777.667969 319.457031 L 790.914062 334.605469 C 810.03125 319.695312 823.910156 299.046875 830.300781 275.84375 C 831.046875 273.246094 831.691406 270.554688 832.296875 267.535156 C 833.738281 260.457031 834.472656 253.144531 834.472656 245.769531 C 834.472656 183.757812 784.003906 133.308594 721.972656 133.308594 C 715.992188 133.308594 710.125 133.785156 704.394531 134.683594 " fill-opacity="1" fill-rule="nonzero"/><path fill="#ffffff" d="M 207.027344 140.511719 C 207.027344 147.136719 212.417969 152.523438 219.046875 152.523438 C 225.667969 152.523438 231.058594 147.136719 231.058594 140.511719 C 231.058594 133.890625 225.667969 128.5 219.046875 128.5 C 212.417969 128.5 207.027344 133.890625 207.027344 140.511719 " fill-opacity="1" fill-rule="nonzero"/><path fill="#ffde55" d="M 548.8125 419.664062 L 529.101562 425.316406 L 541.515625 443.171875 C 543.789062 446.4375 542.980469 450.929688 539.714844 453.203125 C 538.457031 454.074219 537.023438 454.496094 535.601562 454.496094 C 533.320312 454.496094 531.078125 453.414062 529.679688 451.398438 L 517.429688 433.785156 L 505.179688 451.398438 C 503.777344 453.414062 501.535156 454.496094 499.253906 454.496094 C 497.835938 454.496094 496.398438 454.074219 495.144531 453.203125 C 491.878906 450.929688 491.070312 446.4375 493.34375 443.171875 L 505.761719 425.316406 L 486.046875 419.664062 C 482.222656 418.566406 480.003906 414.578125 481.101562 410.75 C 482.199219 406.925781 486.191406 404.710938 490.019531 405.808594 L 510.222656 411.601562 L 510.222656 391.386719 C 510.222656 387.40625 513.449219 384.179688 517.429688 384.179688 C 521.414062 384.179688 524.640625 387.40625 524.640625 391.386719 L 524.640625 411.601562 L 544.839844 405.808594 C 548.667969 404.710938 552.660156 406.925781 553.757812 410.75 C 554.855469 414.578125 552.640625 418.566406 548.8125 419.664062 Z M 421.488281 419.664062 L 401.773438 425.316406 L 414.191406 443.171875 C 416.464844 446.4375 415.65625 450.929688 412.386719 453.203125 C 411.136719 454.074219 409.703125 454.496094 408.277344 454.496094 C 406 454.496094 403.753906 453.414062 402.351562 451.398438 L 390.105469 433.785156 L 377.855469 451.398438 C 376.453125 453.414062 374.210938 454.496094 371.929688 454.496094 C 370.511719 454.496094 369.078125 454.074219 367.820312 453.203125 C 364.550781 450.929688 363.746094 446.4375 366.019531 443.171875 L 378.4375 425.316406 L 358.722656 419.664062 C 354.894531 418.570312 352.679688 414.578125 353.777344 410.75 C 354.875 406.925781 358.867188 404.710938 362.695312 405.808594 L 382.894531 411.601562 L 382.894531 391.386719 C 382.894531 387.40625 386.125 384.179688 390.105469 384.179688 C 394.085938 384.179688 397.316406 387.40625 397.316406 391.386719 L 397.316406 411.601562 L 417.515625 405.808594 C 421.34375 404.710938 425.335938 406.925781 426.429688 410.75 C 427.527344 414.578125 425.316406 418.566406 421.488281 419.664062 Z M 294.164062 419.664062 L 274.449219 425.316406 L 286.867188 443.171875 C 289.140625 446.4375 288.332031 450.929688 285.0625 453.203125 C 283.8125 454.074219 282.375 454.496094 280.953125 454.496094 C 278.671875 454.496094 276.429688 453.414062 275.03125 451.398438 L 262.78125 433.785156 L 250.53125 451.398438 C 249.128906 453.414062 246.886719 454.496094 244.605469 454.496094 C 243.1875 454.496094 241.75 454.074219 240.496094 453.203125 C 237.226562 450.929688 236.421875 446.4375 238.691406 443.171875 L 251.109375 425.316406 L 231.394531 419.664062 C 227.570312 418.570312 225.355469 414.578125 226.453125 410.75 C 227.550781 406.925781 231.539062 404.710938 235.367188 405.808594 L 255.570312 411.601562 L 255.570312 391.386719 C 255.570312 387.40625 258.800781 384.179688 262.78125 384.179688 C 266.761719 384.179688 269.988281 387.40625 269.988281 391.386719 L 269.988281 411.601562 L 290.191406 405.808594 C 294.019531 404.710938 298.011719 406.925781 299.109375 410.75 C 300.203125 414.578125 297.992188 418.566406 294.164062 419.664062 Z M 551.480469 361.875 L 228.730469 361.875 C 200.625 361.875 177.761719 384.730469 177.761719 412.828125 L 177.761719 425.839844 C 177.761719 453.9375 200.625 476.796875 228.730469 476.796875 L 551.480469 476.796875 C 579.585938 476.796875 602.449219 453.9375 602.449219 425.839844 L 602.449219 412.828125 C 602.449219 384.730469 579.585938 361.875 551.480469 361.875 " fill-opacity="1" fill-rule="nonzero"/><path fill="#97e2ff" d="M 719.347656 532.253906 L 719.347656 410.433594 C 719.347656 407.136719 721.582031 404.261719 724.777344 403.449219 C 724.828125 403.4375 724.871094 403.425781 724.921875 403.414062 C 714.085938 395.777344 705.046875 385.894531 698.363281 374.257812 C 686.035156 352.921875 682.757812 328.054688 689.140625 304.25 C 691.445312 295.644531 694.9375 287.5625 699.4375 280.160156 C 697.816406 280.328125 696.4375 280.519531 695.925781 280.761719 C 668.921875 293.628906 651.472656 321.234375 651.472656 351.089844 C 651.472656 366.765625 656.328125 381.789062 664.816406 394.402344 C 663.496094 393.589844 662.1875 392.734375 660.898438 391.839844 C 664.292969 394.226562 667.886719 396.378906 671.691406 398.210938 C 671.839844 398.269531 671.988281 398.332031 672.125 398.398438 C 676.734375 400.585938 681.421875 402.28125 686.035156 403.445312 C 689.242188 404.253906 691.484375 407.132812 691.484375 410.433594 L 691.484375 633.097656 L 719.347656 633.097656 L 719.347656 618.753906 C 719.347656 614.773438 722.574219 611.546875 726.554688 611.546875 L 754.464844 611.546875 L 754.464844 595.03125 L 745.777344 595.03125 C 741.796875 595.03125 738.570312 591.804688 738.570312 587.828125 L 738.570312 563.179688 C 738.570312 559.199219 741.796875 555.972656 745.777344 555.972656 L 754.464844 555.972656 L 754.464844 539.460938 L 726.554688 539.460938 C 722.574219 539.460938 719.347656 536.234375 719.347656 532.253906 " fill-opacity="1" fill-rule="nonzero"/><path fill="#97e2ff" d="M 657.730469 389.546875 C 657.695312 389.519531 657.660156 389.492188 657.628906 389.46875 C 657.660156 389.492188 657.695312 389.519531 657.730469 389.546875 " fill-opacity="1" fill-rule="nonzero"/><path fill="#ffffff" d="M 651.476562 351.089844 C 651.476562 321.234375 668.925781 293.628906 695.933594 280.761719 C 696.4375 280.515625 697.820312 280.328125 699.4375 280.15625 C 705.953125 269.433594 714.609375 260.132812 725.039062 252.804688 C 718.679688 251.152344 712.121094 250.292969 705.417969 250.292969 C 693.691406 250.292969 682.449219 252.816406 672.023438 257.792969 C 645.015625 270.660156 627.570312 298.265625 627.570312 328.121094 C 627.570312 352.25 638.980469 374.894531 657.628906 389.464844 C 657.664062 389.492188 657.695312 389.519531 657.730469 389.546875 C 658.757812 390.34375 659.828125 391.09375 660.898438 391.839844 C 662.191406 392.734375 663.496094 393.589844 664.824219 394.402344 C 656.328125 381.789062 651.476562 366.765625 651.476562 351.089844 " fill-opacity="1" fill-rule="nonzero"/><path fill="#ffffff" d="M 644.972656 258.496094 C 651.1875 253.066406 658.171875 248.425781 665.808594 244.785156 C 674.953125 240.421875 684.617188 237.660156 694.636719 236.503906 L 694.636719 172.703125 C 665.046875 183.800781 643.921875 212.359375 643.921875 245.773438 C 643.921875 250.058594 644.277344 254.3125 644.972656 258.496094 " fill-opacity="1" fill-rule="nonzero"/><path fill="#023456" d="M 156.140625 140.511719 C 156.140625 147.136719 150.75 152.523438 144.125 152.523438 C 137.5 152.523438 132.109375 147.136719 132.109375 140.511719 C 132.109375 133.890625 137.5 128.5 144.125 128.5 C 150.75 128.5 156.140625 133.890625 156.140625 140.511719 Z M 144.125 166.9375 C 158.703125 166.9375 170.558594 155.082031 170.558594 140.511719 C 170.558594 136.878906 169.820312 133.417969 168.488281 130.261719 C 168.460938 130.195312 168.425781 130.128906 168.394531 130.0625 C 168.117188 129.421875 167.8125 128.800781 167.488281 128.1875 C 167.371094 127.964844 167.246094 127.75 167.121094 127.53125 C 166.855469 127.058594 166.574219 126.597656 166.28125 126.148438 C 166.144531 125.941406 166.015625 125.730469 165.875 125.53125 C 165.453125 124.921875 165.015625 124.328125 164.546875 123.757812 C 164.5 123.699219 164.453125 123.648438 164.40625 123.59375 C 163.957031 123.058594 163.484375 122.539062 162.996094 122.042969 C 162.824219 121.867188 162.648438 121.703125 162.472656 121.535156 C 162.082031 121.152344 161.679688 120.785156 161.261719 120.433594 C 161.082031 120.277344 160.902344 120.121094 160.71875 119.972656 C 160.132812 119.496094 159.53125 119.039062 158.902344 118.617188 C 158.875 118.597656 158.847656 118.582031 158.820312 118.5625 C 158.214844 118.152344 157.585938 117.777344 156.941406 117.421875 C 156.738281 117.308594 156.53125 117.199219 156.324219 117.089844 C 155.824219 116.832031 155.316406 116.585938 154.800781 116.355469 C 154.589844 116.261719 154.375 116.167969 154.164062 116.074219 C 153.449219 115.785156 152.722656 115.507812 151.980469 115.28125 C 151.96875 115.277344 151.957031 115.273438 151.949219 115.269531 C 151.214844 115.042969 150.460938 114.855469 149.703125 114.691406 C 149.476562 114.640625 149.242188 114.601562 149.011719 114.558594 C 148.4375 114.449219 147.855469 114.363281 147.269531 114.292969 C 147.03125 114.261719 146.796875 114.230469 146.558594 114.210938 C 145.753906 114.132812 144.945312 114.085938 144.125 114.085938 C 129.546875 114.085938 117.691406 125.941406 117.691406 140.511719 C 117.691406 141.238281 117.742188 141.957031 117.800781 142.671875 C 117.851562 143.296875 117.9375 143.914062 118.03125 144.53125 C 119.976562 157.195312 130.917969 166.9375 144.125 166.9375 " fill-opacity="1" fill-rule="nonzero"/><path fill="#023456" d="M 231.058594 140.511719 C 231.058594 147.136719 225.667969 152.523438 219.046875 152.523438 C 212.417969 152.523438 207.027344 147.136719 207.027344 140.511719 C 207.027344 133.890625 212.417969 128.5 219.046875 128.5 C 225.667969 128.5 231.058594 133.890625 231.058594 140.511719 Z M 192.613281 140.511719 C 192.613281 155.082031 204.46875 166.9375 219.046875 166.9375 C 233.621094 166.9375 245.476562 155.082031 245.476562 140.511719 C 245.476562 136.878906 244.738281 133.417969 243.40625 130.261719 C 243.378906 130.195312 243.34375 130.128906 243.3125 130.0625 C 243.035156 129.421875 242.734375 128.800781 242.410156 128.1875 C 242.292969 127.964844 242.164062 127.75 242.042969 127.53125 C 241.773438 127.058594 241.496094 126.597656 241.199219 126.148438 C 241.066406 125.941406 240.933594 125.730469 240.792969 125.53125 C 240.371094 124.921875 239.9375 124.328125 239.464844 123.757812 C 239.421875 123.699219 239.371094 123.648438 239.324219 123.59375 C 238.878906 123.058594 238.402344 122.539062 237.914062 122.042969 C 237.746094 121.867188 237.570312 121.703125 237.394531 121.535156 C 237.003906 121.152344 236.597656 120.785156 236.183594 120.433594 C 236 120.277344 235.824219 120.121094 235.640625 119.972656 C 235.050781 119.496094 234.449219 119.039062 233.824219 118.617188 C 233.796875 118.597656 233.769531 118.582031 233.738281 118.5625 C 233.132812 118.152344 232.503906 117.777344 231.863281 117.421875 C 231.660156 117.308594 231.449219 117.199219 231.242188 117.089844 C 230.742188 116.832031 230.238281 116.585938 229.722656 116.355469 C 229.507812 116.261719 229.296875 116.167969 229.082031 116.074219 C 228.367188 115.785156 227.644531 115.507812 226.898438 115.28125 C 226.890625 115.277344 226.878906 115.273438 226.867188 115.269531 C 226.132812 115.042969 225.382812 114.855469 224.625 114.691406 C 224.394531 114.640625 224.164062 114.601562 223.929688 114.558594 C 223.355469 114.449219 222.777344 114.363281 222.1875 114.292969 C 221.953125 114.261719 221.714844 114.230469 221.476562 114.210938 C 220.675781 114.132812 219.867188 114.085938 219.046875 114.085938 C 218.222656 114.085938 217.414062 114.132812 216.613281 114.210938 C 216.371094 114.230469 216.136719 114.261719 215.898438 114.292969 C 215.3125 114.363281 214.734375 114.449219 214.160156 114.558594 C 213.929688 114.601562 213.695312 114.640625 213.464844 114.691406 C 212.707031 114.855469 211.957031 115.042969 211.222656 115.269531 C 211.210938 115.273438 211.199219 115.277344 211.191406 115.28125 C 210.445312 115.507812 209.71875 115.785156 209.007812 116.074219 C 208.792969 116.167969 208.582031 116.261719 208.367188 116.355469 C 207.851562 116.585938 207.34375 116.832031 206.84375 117.09375 C 206.636719 117.199219 206.429688 117.308594 206.226562 117.421875 C 205.582031 117.777344 204.949219 118.15625 204.34375 118.566406 C 204.316406 118.582031 204.289062 118.597656 204.265625 118.609375 C 203.636719 119.039062 203.039062 119.496094 202.449219 119.972656 C 202.265625 120.121094 202.089844 120.273438 201.910156 120.429688 C 201.492188 120.785156 201.085938 121.152344 200.691406 121.535156 C 200.519531 121.703125 200.347656 121.867188 200.179688 122.039062 C 199.679688 122.546875 199.199219 123.070312 198.746094 123.613281 C 198.710938 123.652344 198.675781 123.6875 198.640625 123.730469 C 198.164062 124.308594 197.71875 124.917969 197.292969 125.53125 C 197.152344 125.738281 197.023438 125.9375 196.890625 126.140625 C 196.597656 126.597656 196.316406 127.0625 196.046875 127.53125 C 195.925781 127.75 195.800781 127.964844 195.683594 128.183594 C 195.359375 128.796875 195.050781 129.421875 194.773438 130.0625 C 194.746094 130.128906 194.710938 130.195312 194.683594 130.261719 C 193.351562 133.417969 192.613281 136.878906 192.613281 140.511719 " fill-opacity="1" fill-rule="nonzero"/><path fill="#023456" d="M 290.191406 405.808594 L 269.988281 411.601562 L 269.988281 391.386719 C 269.988281 387.40625 266.761719 384.179688 262.78125 384.179688 C 258.800781 384.179688 255.570312 387.40625 255.570312 391.386719 L 255.570312 411.601562 L 235.367188 405.808594 C 231.539062 404.710938 227.550781 406.925781 226.453125 410.75 C 225.355469 414.578125 227.570312 418.570312 231.394531 419.664062 L 251.109375 425.316406 L 238.691406 443.171875 C 236.421875 446.4375 237.226562 450.929688 240.496094 453.203125 C 241.75 454.074219 243.1875 454.496094 244.605469 454.496094 C 246.886719 454.496094 249.128906 453.414062 250.53125 451.398438 L 262.78125 433.785156 L 275.03125 451.398438 C 276.429688 453.414062 278.671875 454.496094 280.953125 454.496094 C 282.375 454.496094 283.8125 454.074219 285.0625 453.203125 C 288.332031 450.929688 289.140625 446.4375 286.867188 443.171875 L 274.449219 425.316406 L 294.164062 419.664062 C 297.992188 418.566406 300.203125 414.578125 299.109375 410.75 C 298.011719 406.925781 294.019531 404.710938 290.191406 405.808594 " fill-opacity="1" fill-rule="nonzero"/><path fill="#023456" d="M 417.515625 405.808594 L 397.316406 411.601562 L 397.316406 391.386719 C 397.316406 387.40625 394.085938 384.179688 390.105469 384.179688 C 386.125 384.179688 382.894531 387.40625 382.894531 391.386719 L 382.894531 411.601562 L 362.695312 405.808594 C 358.867188 404.710938 354.875 406.925781 353.777344 410.75 C 352.679688 414.578125 354.894531 418.570312 358.722656 419.664062 L 378.4375 425.316406 L 366.019531 443.171875 C 363.746094 446.4375 364.550781 450.929688 367.820312 453.203125 C 369.078125 454.074219 370.511719 454.496094 371.929688 454.496094 C 374.210938 454.496094 376.453125 453.414062 377.855469 451.398438 L 390.105469 433.785156 L 402.351562 451.398438 C 403.753906 453.414062 406 454.496094 408.277344 454.496094 C 409.703125 454.496094 411.136719 454.074219 412.386719 453.203125 C 415.65625 450.929688 416.464844 446.4375 414.191406 443.171875 L 401.773438 425.316406 L 421.488281 419.664062 C 425.316406 418.566406 427.527344 414.578125 426.429688 410.75 C 425.335938 406.925781 421.34375 404.710938 417.515625 405.808594 " fill-opacity="1" fill-rule="nonzero"/><path fill="#023456" d="M 544.839844 405.808594 L 524.640625 411.601562 L 524.640625 391.386719 C 524.640625 387.40625 521.414062 384.179688 517.429688 384.179688 C 513.449219 384.179688 510.222656 387.40625 510.222656 391.386719 L 510.222656 411.601562 L 490.019531 405.808594 C 486.191406 404.710938 482.199219 406.925781 481.101562 410.75 C 480.003906 414.578125 482.222656 418.566406 486.046875 419.664062 L 505.761719 425.316406 L 493.34375 443.171875 C 491.070312 446.4375 491.878906 450.929688 495.144531 453.203125 C 496.398438 454.074219 497.835938 454.496094 499.253906 454.496094 C 501.535156 454.496094 503.777344 453.414062 505.179688 451.398438 L 517.429688 433.785156 L 529.679688 451.398438 C 531.078125 453.414062 533.320312 454.496094 535.601562 454.496094 C 537.023438 454.496094 538.457031 454.074219 539.714844 453.203125 C 542.980469 450.929688 543.789062 446.4375 541.515625 443.171875 L 529.101562 425.316406 L 548.8125 419.664062 C 552.640625 418.566406 554.855469 414.578125 553.757812 410.75 C 552.660156 406.925781 548.667969 404.710938 544.839844 405.808594 " fill-opacity="1" fill-rule="nonzero"/><path fill="#023456" d="M 602.453125 425.839844 C 602.453125 453.9375 579.585938 476.796875 551.480469 476.796875 L 228.730469 476.796875 C 200.625 476.796875 177.761719 453.9375 177.761719 425.839844 L 177.761719 412.828125 C 177.761719 384.730469 200.625 361.875 228.730469 361.875 L 551.480469 361.875 C 579.585938 361.875 602.453125 384.730469 602.453125 412.828125 Z M 551.480469 347.460938 L 228.730469 347.460938 C 192.675781 347.460938 163.339844 376.78125 163.339844 412.828125 L 163.339844 425.839844 C 163.339844 461.886719 192.675781 491.210938 228.730469 491.210938 L 551.480469 491.210938 C 587.539062 491.210938 616.871094 461.886719 616.871094 425.839844 L 616.871094 412.828125 C 616.871094 376.78125 587.539062 347.460938 551.480469 347.460938 " fill-opacity="1" fill-rule="nonzero"/><g clip-path="url(#3f7cda95a0)"><path fill="#023456" d="M 938.332031 563.003906 C 936.671875 563.960938 935.464844 565.535156 934.972656 567.382812 C 934.476562 569.230469 934.734375 571.199219 935.695312 572.855469 L 942.890625 585.296875 L 918.765625 599.226562 L 807.359375 406.367188 C 805.707031 403.511719 802.335938 402.144531 799.164062 403.035156 C 783.59375 407.410156 767.082031 406.773438 751.917969 401.335938 C 751.855469 401.3125 751.792969 401.292969 751.734375 401.273438 C 750.707031 400.898438 749.683594 400.5 748.675781 400.085938 C 748.523438 400.027344 748.375 399.972656 748.222656 399.910156 C 747.089844 399.4375 745.957031 398.9375 744.847656 398.414062 C 730.484375 391.628906 718.730469 380.789062 710.855469 367.066406 C 700.453125 349.050781 697.679688 328.066406 703.066406 307.980469 C 708.449219 287.890625 721.339844 271.117188 739.367188 260.734375 C 757.726562 250.113281 779.402344 247.519531 799.613281 253.339844 C 799.300781 256.589844 798.804688 259.863281 798.078125 263.117188 C 797.667969 264.914062 797.175781 266.683594 796.632812 268.441406 C 791.160156 286.355469 779.179688 302.019531 763.117188 311.980469 C 761.3125 313.097656 760.097656 314.945312 759.78125 317.039062 C 759.46875 319.132812 760.09375 321.257812 761.488281 322.847656 L 784.425781 349.078125 C 785.84375 350.699219 787.839844 351.539062 789.851562 351.539062 C 791.273438 351.539062 792.710938 351.121094 793.960938 350.257812 C 817.132812 334.191406 834.324219 310.949219 842.761719 284.492188 C 843.789062 286.015625 844.792969 287.574219 845.722656 289.183594 C 863.488281 319.976562 858.132812 358.835938 832.703125 383.675781 C 830.347656 385.980469 829.847656 389.582031 831.496094 392.433594 L 892.433594 497.992188 C 893.394531 499.648438 894.96875 500.855469 896.816406 501.351562 C 898.660156 501.84375 900.628906 501.585938 902.28125 500.625 L 926.46875 486.652344 L 934.726562 500.929688 L 925.253906 506.40625 C 923.597656 507.367188 922.390625 508.9375 921.894531 510.785156 C 921.398438 512.632812 921.664062 514.601562 922.625 516.253906 L 934.972656 537.585938 C 936.96875 541.027344 941.371094 542.207031 944.816406 540.222656 L 954.238281 534.789062 L 962.464844 549.070312 Z M 743.253906 539.460938 L 754.46875 539.460938 L 754.46875 555.972656 L 745.777344 555.972656 C 741.800781 555.972656 738.566406 559.199219 738.566406 563.179688 L 738.566406 587.828125 C 738.566406 591.804688 741.800781 595.03125 745.777344 595.03125 L 754.46875 595.03125 L 754.46875 611.546875 L 726.554688 611.546875 C 722.570312 611.546875 719.34375 614.773438 719.34375 618.753906 L 719.34375 633.097656 L 691.484375 633.097656 L 691.484375 410.433594 C 691.484375 407.132812 689.242188 404.253906 686.035156 403.445312 C 681.421875 402.28125 676.738281 400.585938 672.128906 398.398438 C 671.984375 398.332031 671.84375 398.269531 671.691406 398.210938 C 667.886719 396.378906 664.292969 394.226562 660.898438 391.839844 C 659.824219 391.09375 658.753906 390.347656 657.730469 389.546875 C 657.695312 389.519531 657.660156 389.492188 657.628906 389.46875 C 638.976562 374.894531 627.566406 352.25 627.566406 328.121094 C 627.566406 298.269531 645.011719 270.664062 672.023438 257.792969 C 682.449219 252.816406 693.683594 250.292969 705.414062 250.292969 C 712.121094 250.292969 718.675781 251.152344 725.042969 252.804688 C 714.609375 260.132812 705.957031 269.433594 699.4375 280.15625 C 694.933594 287.5625 691.449219 295.644531 689.144531 304.25 C 682.761719 328.054688 686.035156 352.921875 698.359375 374.257812 C 705.042969 385.894531 714.085938 395.777344 724.921875 403.414062 C 724.871094 403.425781 724.824219 403.4375 724.777344 403.449219 C 721.585938 404.261719 719.34375 407.136719 719.34375 410.433594 L 719.34375 532.253906 C 719.34375 536.234375 722.570312 539.460938 726.554688 539.460938 Z M 677.070312 622.492188 C 675.96875 622.664062 674.851562 622.769531 673.710938 622.769531 L 106.5 622.769531 C 94.574219 622.769531 84.875 613.066406 84.875 601.148438 L 84.875 197.128906 L 604.765625 197.128906 C 598.519531 212.117188 595.054688 228.546875 595.054688 245.769531 C 595.054688 269.675781 601.757812 292.859375 614.421875 313.023438 C 613.59375 317.972656 613.144531 323.015625 613.144531 328.121094 C 613.144531 363.523438 633.859375 396.214844 665.910156 411.421875 C 666.0625 411.496094 666.222656 411.5625 666.378906 411.625 C 669.90625 413.277344 673.488281 414.691406 677.070312 415.851562 Z M 70.457031 115.738281 L 70.457031 543.589844 L 36.046875 543.589844 C 24.121094 543.589844 14.417969 533.890625 14.417969 521.96875 L 14.417969 36.511719 C 14.417969 24.589844 24.121094 14.890625 36.046875 14.890625 L 603.203125 14.890625 C 615.132812 14.890625 624.832031 24.589844 624.832031 36.511719 L 624.832031 79.703125 L 106.5 79.703125 C 86.628906 79.703125 70.457031 95.871094 70.457031 115.738281 Z M 673.710938 94.117188 C 685.632812 94.117188 695.335938 103.816406 695.335938 115.738281 L 695.335938 121.726562 C 693.097656 122.207031 690.871094 122.75 688.671875 123.347656 C 688.476562 123.402344 688.28125 123.46875 688.085938 123.523438 C 686.082031 124.082031 684.09375 124.671875 682.136719 125.320312 C 682.128906 125.324219 682.125 125.324219 682.117188 125.328125 C 677.816406 126.75 673.621094 128.402344 669.539062 130.261719 C 645.296875 141.308594 625.121094 159.757812 611.910156 182.714844 L 84.875 182.714844 L 84.875 115.738281 C 84.875 103.816406 94.574219 94.117188 106.5 94.117188 Z M 707.730469 169.078125 C 712.347656 168.222656 717.109375 167.75 721.96875 167.75 C 762.527344 167.75 795.941406 198.839844 799.664062 238.429688 C 780.335938 233.78125 760.097656 235.527344 741.859375 243.386719 C 731.039062 238.726562 719.578125 236.230469 707.730469 235.9375 Z M 694.632812 172.703125 L 694.632812 236.503906 C 684.617188 237.65625 674.953125 240.421875 665.808594 244.78125 C 658.171875 248.421875 651.195312 253.066406 644.96875 258.496094 C 644.277344 254.3125 643.929688 250.058594 643.929688 245.769531 C 643.929688 212.363281 665.046875 183.800781 694.632812 172.703125 Z M 834.476562 245.769531 C 834.476562 253.144531 833.742188 260.453125 832.300781 267.535156 C 831.691406 270.554688 831.050781 273.246094 830.296875 275.84375 C 823.910156 299.046875 810.03125 319.695312 790.914062 334.605469 L 777.667969 319.457031 C 794.945312 306.394531 807.332031 287.425781 812.144531 266.277344 C 813.46875 260.335938 814.21875 254.351562 814.378906 248.492188 C 814.429688 247.597656 814.433594 246.65625 814.433594 245.769531 C 814.433594 194.800781 772.957031 153.335938 721.96875 153.335938 C 670.988281 153.335938 629.511719 194.800781 629.511719 245.769531 C 629.511719 254.375 630.695312 262.855469 633.035156 271.042969 C 627.699219 277.824219 623.316406 285.332031 620.042969 293.324219 C 613.097656 278.515625 609.472656 262.339844 609.472656 245.769531 C 609.472656 190.109375 650.144531 143.789062 703.328125 134.878906 C 703.695312 134.839844 704.050781 134.777344 704.398438 134.6875 C 710.125 133.785156 715.996094 133.304688 721.96875 133.304688 C 784.003906 133.304688 834.476562 183.757812 834.476562 245.769531 Z M 978.550781 548.109375 L 963.125 521.347656 C 962.171875 519.691406 960.59375 518.480469 958.746094 517.984375 C 956.898438 517.488281 954.933594 517.746094 953.277344 518.703125 L 943.847656 524.140625 L 938.710938 515.277344 L 948.179688 509.804688 C 949.839844 508.847656 951.046875 507.273438 951.539062 505.425781 C 952.03125 503.578125 951.773438 501.609375 950.820312 499.957031 L 935.34375 473.199219 C 934.382812 471.542969 932.808594 470.332031 930.964844 469.839844 C 929.113281 469.34375 927.148438 469.609375 925.492188 470.566406 L 901.316406 484.539062 L 846.691406 389.925781 C 873.4375 360.425781 878.324219 316.847656 858.203125 281.972656 C 855.007812 276.449219 851.257812 271.34375 847.089844 266.703125 C 848.257812 259.851562 848.890625 252.835938 848.890625 245.769531 C 848.890625 175.808594 791.953125 118.890625 721.96875 118.890625 C 717.855469 118.890625 713.78125 119.105469 709.753906 119.492188 L 709.753906 115.738281 C 709.753906 95.871094 693.582031 79.703125 673.710938 79.703125 L 639.246094 79.703125 L 639.246094 36.511719 C 639.246094 16.644531 623.078125 0.476562 603.203125 0.476562 L 36.046875 0.476562 C 16.167969 0.476562 0 16.644531 0 36.511719 L 0 521.96875 C 0 541.835938 16.167969 558 36.046875 558 L 70.457031 558 L 70.457031 601.148438 C 70.457031 621.015625 86.628906 637.179688 106.5 637.179688 L 673.710938 637.179688 C 674.839844 637.179688 675.957031 637.125 677.070312 637.023438 L 677.070312 640.304688 C 677.070312 644.285156 680.296875 647.511719 684.273438 647.511719 L 726.554688 647.511719 C 730.539062 647.511719 733.765625 644.285156 733.765625 640.304688 L 733.765625 625.960938 L 761.671875 625.960938 C 765.65625 625.960938 768.882812 622.730469 768.882812 618.753906 L 768.882812 587.828125 C 768.882812 583.847656 765.65625 580.621094 761.671875 580.621094 L 752.988281 580.621094 L 752.988281 570.386719 L 761.671875 570.386719 C 765.65625 570.386719 768.882812 567.160156 768.882812 563.179688 L 768.882812 532.253906 C 768.882812 528.273438 765.65625 525.046875 761.671875 525.046875 L 733.765625 525.046875 L 733.765625 415.859375 C 736.496094 414.976562 739.132812 413.929688 741.714844 412.804688 C 759.371094 420.398438 778.894531 422.304688 797.582031 418.269531 L 909.882812 612.675781 C 911.21875 614.992188 913.640625 616.28125 916.132812 616.28125 C 917.355469 616.28125 918.589844 615.96875 919.726562 615.3125 L 956.355469 594.175781 C 958.007812 593.21875 959.21875 591.644531 959.707031 589.796875 C 960.203125 587.949219 959.941406 585.980469 958.984375 584.324219 L 951.789062 571.878906 L 975.914062 557.949219 C 979.355469 555.957031 980.539062 551.554688 978.550781 548.109375 " fill-opacity="1" fill-rule="nonzero"/></g></svg>