<svg xmlns="http://www.w3.org/2000/svg" xmlns:xlink="http://www.w3.org/1999/xlink" width="200" zoomAndPan="magnify" viewBox="0 0 627 647.999998" height="200" preserveAspectRatio="xMidYMid meet" version="1.0"><path fill="#000000" d="M 341.988281 341.800781 C 341.988281 342.269531 341.941406 342.734375 341.851562 343.191406 C 341.757812 343.648438 341.625 344.09375 341.445312 344.527344 C 341.265625 344.960938 341.046875 345.371094 340.785156 345.757812 C 340.527344 346.148438 340.230469 346.507812 339.902344 346.835938 C 339.570312 347.167969 339.210938 347.464844 338.820312 347.722656 C 338.433594 347.984375 338.023438 348.203125 337.589844 348.382812 C 337.160156 348.558594 336.714844 348.695312 336.253906 348.785156 C 335.796875 348.878906 335.332031 348.921875 334.863281 348.921875 C 334.398438 348.921875 333.933594 348.878906 333.476562 348.785156 C 333.015625 348.695312 332.570312 348.558594 332.140625 348.382812 C 331.707031 348.203125 331.296875 347.984375 330.910156 347.722656 C 330.519531 347.464844 330.160156 347.167969 329.828125 346.835938 C 329.5 346.507812 329.203125 346.148438 328.945312 345.757812 C 328.683594 345.371094 328.464844 344.960938 328.285156 344.527344 C 328.105469 344.09375 327.972656 343.648438 327.878906 343.191406 C 327.789062 342.734375 327.742188 342.269531 327.742188 341.800781 C 327.742188 341.335938 327.789062 340.871094 327.878906 340.414062 C 327.972656 339.953125 328.105469 339.507812 328.285156 339.078125 C 328.464844 338.644531 328.683594 338.234375 328.945312 337.847656 C 329.203125 337.457031 329.5 337.097656 329.828125 336.765625 C 330.160156 336.4375 330.519531 336.140625 330.910156 335.882812 C 331.296875 335.621094 331.707031 335.402344 332.140625 335.222656 C 332.570312 335.042969 333.015625 334.910156 333.476562 334.816406 C 333.933594 334.726562 334.398438 334.679688 334.863281 334.679688 C 335.332031 334.679688 335.796875 334.726562 336.253906 334.816406 C 336.714844 334.910156 337.160156 335.042969 337.589844 335.222656 C 338.023438 335.402344 338.433594 335.621094 338.820312 335.882812 C 339.210938 336.140625 339.570312 336.4375 339.902344 336.765625 C 340.230469 337.097656 340.527344 337.457031 340.785156 337.847656 C 341.046875 338.234375 341.265625 338.644531 341.445312 339.078125 C 341.625 339.507812 341.757812 339.953125 341.851562 340.414062 C 341.941406 340.871094 341.988281 341.335938 341.988281 341.800781 Z M 341.988281 341.800781 " fill-opacity="1" fill-rule="nonzero"/><path fill="#000000" d="M 541.394531 512.703125 C 541.394531 513.171875 541.347656 513.632812 541.257812 514.09375 C 541.164062 514.550781 541.03125 514.996094 540.851562 515.429688 C 540.671875 515.859375 540.453125 516.269531 540.195312 516.660156 C 539.933594 517.046875 539.636719 517.40625 539.308594 517.738281 C 538.976562 518.070312 538.617188 518.363281 538.230469 518.625 C 537.839844 518.882812 537.429688 519.101562 536.996094 519.28125 C 536.566406 519.460938 536.121094 519.597656 535.660156 519.6875 C 535.203125 519.777344 534.738281 519.824219 534.273438 519.824219 C 533.804688 519.824219 533.339844 519.777344 532.882812 519.6875 C 532.425781 519.597656 531.980469 519.460938 531.546875 519.28125 C 531.113281 519.101562 530.703125 518.882812 530.316406 518.625 C 529.925781 518.363281 529.566406 518.070312 529.234375 517.738281 C 528.90625 517.40625 528.609375 517.046875 528.351562 516.660156 C 528.089844 516.269531 527.871094 515.859375 527.691406 515.429688 C 527.511719 514.996094 527.378906 514.550781 527.285156 514.09375 C 527.195312 513.632812 527.148438 513.171875 527.148438 512.703125 C 527.148438 512.234375 527.195312 511.773438 527.285156 511.3125 C 527.378906 510.855469 527.511719 510.410156 527.691406 509.976562 C 527.871094 509.546875 528.089844 509.136719 528.351562 508.746094 C 528.609375 508.359375 528.90625 508 529.234375 507.667969 C 529.566406 507.335938 529.925781 507.042969 530.316406 506.78125 C 530.703125 506.523438 531.113281 506.304688 531.546875 506.125 C 531.980469 505.945312 532.425781 505.808594 532.882812 505.71875 C 533.339844 505.628906 533.804688 505.582031 534.273438 505.582031 C 534.738281 505.582031 535.203125 505.628906 535.660156 505.71875 C 536.121094 505.808594 536.566406 505.945312 536.996094 506.125 C 537.429688 506.304688 537.839844 506.523438 538.230469 506.78125 C 538.617188 507.042969 538.976562 507.335938 539.308594 507.667969 C 539.636719 508 539.933594 508.359375 540.195312 508.746094 C 540.453125 509.136719 540.671875 509.546875 540.851562 509.976562 C 541.03125 510.410156 541.164062 510.855469 541.257812 511.3125 C 541.347656 511.773438 541.394531 512.234375 541.394531 512.703125 Z M 541.394531 512.703125 " fill-opacity="1" fill-rule="nonzero"/><path fill="#000000" d="M 600.339844 273.351562 C 600.335938 273.34375 600.332031 273.335938 600.328125 273.332031 C 600.257812 273.253906 600.175781 273.199219 600.109375 273.128906 C 589.019531 262.734375 574.132812 256.351562 557.773438 256.351562 L 538.378906 256.351562 C 566.375 207.90625 560.230469 144.179688 517.921875 101.878906 C 467.863281 51.824219 386.84375 51.820312 336.773438 101.878906 C 294.972656 143.675781 288.183594 207.402344 316.355469 256.351562 L 83.46875 256.351562 C 67.113281 256.351562 52.226562 262.734375 41.140625 273.125 C 41.070312 273.199219 40.984375 273.253906 40.917969 273.332031 C 40.757812 273.554688 21.511719 289.632812 21.511719 318.304688 L 21.511719 586.046875 C 21.511719 600.742188 26.625 615.121094 37.171875 627.203125 C 37.226562 627.265625 37.296875 627.308594 37.355469 627.371094 C 48.707031 640.023438 65.171875 648 83.46875 648 L 557.773438 648 C 576.070312 648 592.53125 640.023438 603.882812 627.375 C 603.941406 627.3125 604.015625 627.269531 604.074219 627.203125 C 613.855469 616.132812 619.730469 601.734375 619.730469 586.046875 L 619.730469 318.304688 C 619.730469 300.617188 612.269531 284.648438 600.339844 273.351562 Z M 346.84375 111.949219 C 391.335938 67.460938 463.351562 67.453125 507.851562 111.949219 C 552.492188 156.585938 552.1875 228.609375 507.851562 272.9375 C 463.359375 317.425781 391.34375 317.433594 346.84375 272.9375 C 302.457031 228.550781 302.457031 156.332031 346.84375 111.949219 Z M 325.90625 270.59375 C 377.128906 336.980469 477.136719 337.378906 528.8125 270.59375 L 557.773438 270.59375 C 567.386719 270.59375 576.339844 273.460938 583.839844 278.371094 L 320.621094 510.332031 L 137.464844 348.921875 L 313.5 348.921875 C 317.433594 348.921875 320.621094 345.734375 320.621094 341.800781 C 320.621094 337.867188 317.433594 334.679688 313.5 334.679688 L 121.304688 334.679688 L 57.40625 278.371094 C 64.902344 273.460938 73.855469 270.59375 83.46875 270.59375 Z M 35.753906 318.304688 C 35.753906 306.773438 39.871094 296.183594 46.703125 287.925781 L 229.046875 448.617188 L 43.53125 612.105469 C 38.621094 604.609375 35.753906 595.660156 35.753906 586.046875 Z M 83.46875 633.757812 C 71.898438 633.757812 61.277344 629.617188 53.007812 622.738281 L 239.816406 458.105469 L 315.914062 525.167969 C 318.601562 527.539062 322.640625 527.539062 325.328125 525.167969 L 401.425781 458.109375 L 588.238281 622.738281 C 579.96875 629.617188 569.347656 633.757812 557.773438 633.757812 Z M 605.488281 505.582031 L 555.636719 505.582031 C 551.703125 505.582031 548.515625 508.769531 548.515625 512.703125 C 548.515625 516.636719 551.703125 519.824219 555.636719 519.824219 L 605.488281 519.824219 L 605.488281 586.046875 C 605.488281 595.660156 602.621094 604.605469 597.714844 612.105469 L 412.195312 448.617188 L 594.539062 287.925781 C 601.375 296.179688 605.488281 306.769531 605.488281 318.304688 Z M 605.488281 505.582031 " fill-opacity="1" fill-rule="nonzero"/><path fill="#000000" d="M 384.25 264.839844 C 397.242188 272.585938 412.148438 276.679688 427.359375 276.679688 C 427.363281 276.679688 427.363281 276.679688 427.367188 276.679688 C 449.863281 276.679688 471.015625 267.917969 486.921875 252.011719 C 514.234375 224.703125 519.511719 182.488281 499.757812 149.347656 C 497.386719 145.375 491.890625 144.671875 488.605469 147.960938 L 382.863281 253.6875 C 379.582031 256.964844 380.265625 262.464844 384.25 264.839844 Z M 491.753906 164.949219 C 502.898438 190.9375 497.320312 221.476562 476.851562 241.941406 C 455.851562 262.941406 425.171875 267.625 399.859375 256.835938 Z M 491.753906 164.949219 " fill-opacity="1" fill-rule="nonzero"/><path fill="#000000" d="M 366.097656 236.925781 L 471.835938 131.199219 C 475.109375 127.925781 474.445312 122.429688 470.449219 120.046875 C 438.6875 101.113281 396.128906 104.523438 367.773438 132.875 C 340.460938 160.183594 335.183594 202.402344 354.941406 235.539062 C 357.324219 239.523438 362.820312 240.203125 366.097656 236.925781 Z M 377.847656 142.945312 C 398.878906 121.917969 429.554688 117.273438 454.839844 128.054688 L 362.941406 219.941406 C 351.800781 193.949219 357.378906 163.410156 377.847656 142.945312 Z M 377.847656 142.945312 " fill-opacity="1" fill-rule="nonzero"/><path fill="#000000" d="M 82.714844 216.917969 C 80.691406 216.917969 78.691406 216.648438 76.71875 216.101562 C 73.65625 215.261719 70.007812 213.898438 67.320312 212.179688 C 66.234375 211.492188 65.589844 211.023438 65.394531 210.773438 L 60.066406 221.359375 C 67.234375 226.21875 79.609375 229.460938 89.816406 227.019531 C 94.472656 225.90625 98.257812 223.480469 100.511719 219.324219 C 101.621094 217.277344 102.179688 214.773438 102.179688 211.8125 C 102.179688 199.308594 91.8125 197.664062 81.011719 194.574219 C 79.171875 194.046875 76.675781 193.179688 75.5 191.6875 C 75.027344 191.09375 74.796875 190.355469 74.796875 189.464844 C 74.796875 186.554688 76.964844 185.101562 81.308594 185.101562 C 82.886719 185.101562 84.464844 185.324219 86.046875 185.765625 C 89.113281 186.632812 91.878906 187.886719 93.742188 189.023438 C 94.628906 189.566406 95.148438 189.9375 95.296875 190.132812 L 100.625 180.070312 C 99.4375 179.378906 98.144531 178.6875 96.738281 177.996094 C 92.449219 175.886719 86.769531 174.296875 81.679688 174.296875 C 70.828125 174.296875 62.285156 180.671875 62.285156 191.390625 C 62.285156 194.929688 63.179688 198 65.726562 200.492188 C 71.835938 206.472656 84.242188 206.609375 88.191406 210.558594 C 88.832031 211.199219 89.15625 212.015625 89.15625 213 C 89.152344 215.609375 87.007812 216.917969 82.714844 216.917969 Z M 82.714844 216.917969 " fill-opacity="1" fill-rule="nonzero"/><path fill="#000000" d="M 114.464844 227.277344 L 126.601562 227.277344 L 126.601562 210.328125 L 137.257812 210.328125 C 144.789062 210.328125 150.355469 205.617188 152.835938 199.15625 C 156.398438 189.871094 151.734375 180.207031 143.808594 176.289062 C 141.710938 175.253906 139.402344 174.734375 136.886719 174.734375 L 114.464844 174.734375 Z M 126.601562 185.390625 L 136.070312 185.390625 C 136.761719 185.390625 137.453125 185.527344 138.144531 185.800781 C 139.683594 186.402344 140.714844 187.734375 141.289062 189.3125 C 141.609375 190.203125 141.769531 191.265625 141.769531 192.496094 C 141.769531 194.863281 141.253906 196.664062 140.214844 197.898438 C 139.179688 199.132812 137.945312 199.75 136.515625 199.75 L 126.597656 199.75 L 126.597656 185.390625 Z M 126.601562 185.390625 " fill-opacity="1" fill-rule="nonzero"/><path fill="#000000" d="M 157.535156 227.277344 L 169.96875 227.277344 L 173.964844 215.511719 L 190.320312 215.511719 L 194.390625 227.277344 L 206.824219 227.277344 L 187.65625 174.734375 L 176.703125 174.734375 Z M 188.324219 207.148438 L 175.890625 207.148438 L 182.179688 188.574219 Z M 188.324219 207.148438 " fill-opacity="1" fill-rule="nonzero"/><path fill="#000000" d="M 229.324219 195.828125 L 240.722656 218.695312 L 247.234375 218.695312 L 258.632812 195.828125 L 258.632812 227.277344 L 270.769531 227.277344 L 270.769531 174.734375 L 257.671875 174.734375 L 243.976562 202.191406 L 230.359375 174.734375 L 217.1875 174.734375 L 217.1875 227.277344 L 229.324219 227.277344 Z M 229.324219 195.828125 " fill-opacity="1" fill-rule="nonzero"/><path fill="#000000" d="M 591.246094 106.8125 C 610.878906 106.8125 626.855469 90.839844 626.855469 71.207031 C 626.855469 51.578125 610.878906 35.605469 591.246094 35.605469 C 571.609375 35.605469 555.636719 51.578125 555.636719 71.207031 C 555.636719 90.839844 571.609375 106.8125 591.246094 106.8125 Z M 591.246094 49.847656 C 603.027344 49.847656 612.609375 59.429688 612.609375 71.207031 C 612.609375 82.988281 603.027344 92.570312 591.246094 92.570312 C 579.464844 92.570312 569.878906 82.988281 569.878906 71.207031 C 569.878906 59.429688 579.464844 49.847656 591.246094 49.847656 Z M 591.246094 49.847656 " fill-opacity="1" fill-rule="nonzero"/><path fill="#000000" d="M 64.242188 128.175781 C 95.65625 128.175781 121.214844 102.621094 121.214844 71.207031 C 121.214844 39.796875 95.65625 14.242188 64.242188 14.242188 C 32.824219 14.242188 7.269531 39.796875 7.269531 71.207031 C 7.269531 102.621094 32.824219 128.175781 64.242188 128.175781 Z M 64.242188 28.484375 C 87.800781 28.484375 106.972656 47.648438 106.972656 71.207031 C 106.972656 94.765625 87.800781 113.933594 64.242188 113.933594 C 40.679688 113.933594 21.511719 94.765625 21.511719 71.207031 C 21.511719 47.648438 40.679688 28.484375 64.242188 28.484375 Z M 64.242188 28.484375 " fill-opacity="1" fill-rule="nonzero"/><path fill="#000000" d="M 505.785156 10.679688 C 505.785156 11.382812 505.71875 12.078125 505.578125 12.765625 C 505.441406 13.453125 505.242188 14.121094 504.972656 14.769531 C 504.703125 15.417969 504.375 16.03125 503.984375 16.617188 C 503.59375 17.199219 503.152344 17.738281 502.65625 18.234375 C 502.160156 18.730469 501.621094 19.171875 501.039062 19.5625 C 500.453125 19.953125 499.839844 20.28125 499.191406 20.550781 C 498.542969 20.816406 497.875 21.019531 497.1875 21.15625 C 496.5 21.292969 495.804688 21.363281 495.101562 21.363281 C 494.402344 21.363281 493.707031 21.292969 493.019531 21.15625 C 492.332031 21.019531 491.664062 20.816406 491.015625 20.550781 C 490.367188 20.28125 489.75 19.953125 489.167969 19.5625 C 488.585938 19.171875 488.046875 18.730469 487.550781 18.234375 C 487.054688 17.738281 486.609375 17.199219 486.21875 16.617188 C 485.832031 16.03125 485.5 15.417969 485.234375 14.769531 C 484.964844 14.121094 484.761719 13.453125 484.625 12.765625 C 484.488281 12.078125 484.421875 11.382812 484.421875 10.679688 C 484.421875 9.980469 484.488281 9.285156 484.625 8.597656 C 484.761719 7.910156 484.964844 7.242188 485.234375 6.59375 C 485.5 5.945312 485.832031 5.332031 486.21875 4.746094 C 486.609375 4.164062 487.054688 3.625 487.550781 3.128906 C 488.046875 2.632812 488.585938 2.191406 489.167969 1.800781 C 489.75 1.410156 490.367188 1.082031 491.015625 0.8125 C 491.664062 0.542969 492.332031 0.34375 493.019531 0.207031 C 493.707031 0.0703125 494.402344 0 495.101562 0 C 495.804688 0 496.5 0.0703125 497.1875 0.207031 C 497.875 0.34375 498.542969 0.542969 499.191406 0.8125 C 499.839844 1.082031 500.453125 1.410156 501.039062 1.800781 C 501.621094 2.191406 502.160156 2.632812 502.65625 3.128906 C 503.152344 3.625 503.59375 4.164062 503.984375 4.746094 C 504.375 5.332031 504.703125 5.945312 504.972656 6.59375 C 505.242188 7.242188 505.441406 7.910156 505.578125 8.597656 C 505.71875 9.285156 505.785156 9.980469 505.785156 10.679688 Z M 505.785156 10.679688 " fill-opacity="1" fill-rule="nonzero"/><path fill="#000000" d="M 619.730469 181.582031 C 619.730469 182.285156 619.664062 182.976562 619.527344 183.667969 C 619.390625 184.355469 619.1875 185.023438 618.917969 185.671875 C 618.652344 186.316406 618.320312 186.933594 617.933594 187.515625 C 617.542969 188.101562 617.097656 188.640625 616.601562 189.136719 C 616.105469 189.632812 615.566406 190.074219 614.984375 190.464844 C 614.402344 190.851562 613.785156 191.183594 613.136719 191.449219 C 612.488281 191.71875 611.820312 191.921875 611.132812 192.058594 C 610.445312 192.195312 609.75 192.265625 609.050781 192.265625 C 608.347656 192.265625 607.652344 192.195312 606.964844 192.058594 C 606.277344 191.921875 605.609375 191.71875 604.960938 191.449219 C 604.3125 191.183594 603.699219 190.851562 603.113281 190.464844 C 602.53125 190.074219 601.992188 189.632812 601.496094 189.136719 C 601 188.640625 600.558594 188.101562 600.167969 187.515625 C 599.777344 186.933594 599.449219 186.316406 599.179688 185.671875 C 598.910156 185.023438 598.710938 184.355469 598.574219 183.667969 C 598.433594 182.976562 598.367188 182.285156 598.367188 181.582031 C 598.367188 180.882812 598.433594 180.1875 598.574219 179.5 C 598.710938 178.8125 598.910156 178.144531 599.179688 177.496094 C 599.449219 176.847656 599.777344 176.230469 600.167969 175.648438 C 600.558594 175.066406 601 174.527344 601.496094 174.03125 C 601.992188 173.535156 602.53125 173.089844 603.113281 172.703125 C 603.699219 172.3125 604.3125 171.984375 604.960938 171.714844 C 605.609375 171.445312 606.277344 171.242188 606.964844 171.105469 C 607.652344 170.96875 608.347656 170.902344 609.050781 170.902344 C 609.75 170.902344 610.445312 170.96875 611.132812 171.105469 C 611.820312 171.242188 612.488281 171.445312 613.136719 171.714844 C 613.785156 171.984375 614.402344 172.3125 614.984375 172.703125 C 615.566406 173.089844 616.105469 173.535156 616.601562 174.03125 C 617.097656 174.527344 617.542969 175.066406 617.933594 175.648438 C 618.320312 176.230469 618.652344 176.847656 618.917969 177.496094 C 619.1875 178.144531 619.390625 178.8125 619.527344 179.5 C 619.664062 180.1875 619.730469 180.882812 619.730469 181.582031 Z M 619.730469 181.582031 " fill-opacity="1" fill-rule="nonzero"/><path fill="#000000" d="M 299.257812 53.40625 C 299.257812 54.109375 299.1875 54.800781 299.050781 55.492188 C 298.914062 56.179688 298.710938 56.847656 298.445312 57.496094 C 298.175781 58.140625 297.847656 58.757812 297.457031 59.339844 C 297.066406 59.925781 296.625 60.464844 296.128906 60.960938 C 295.632812 61.457031 295.09375 61.898438 294.507812 62.289062 C 293.925781 62.675781 293.308594 63.007812 292.660156 63.273438 C 292.015625 63.542969 291.347656 63.746094 290.65625 63.882812 C 289.96875 64.019531 289.277344 64.089844 288.574219 64.089844 C 287.871094 64.089844 287.179688 64.019531 286.488281 63.882812 C 285.800781 63.746094 285.132812 63.542969 284.484375 63.273438 C 283.839844 63.007812 283.222656 62.675781 282.640625 62.289062 C 282.054688 61.898438 281.515625 61.457031 281.019531 60.960938 C 280.523438 60.464844 280.082031 59.925781 279.691406 59.339844 C 279.300781 58.757812 278.972656 58.140625 278.703125 57.496094 C 278.4375 56.847656 278.234375 56.179688 278.097656 55.492188 C 277.960938 54.800781 277.890625 54.109375 277.890625 53.40625 C 277.890625 52.707031 277.960938 52.011719 278.097656 51.324219 C 278.234375 50.636719 278.4375 49.96875 278.703125 49.320312 C 278.972656 48.671875 279.300781 48.054688 279.691406 47.472656 C 280.082031 46.890625 280.523438 46.351562 281.019531 45.855469 C 281.515625 45.359375 282.054688 44.914062 282.640625 44.527344 C 283.222656 44.136719 283.839844 43.808594 284.484375 43.539062 C 285.132812 43.269531 285.800781 43.066406 286.488281 42.929688 C 287.179688 42.792969 287.871094 42.726562 288.574219 42.726562 C 289.277344 42.726562 289.96875 42.792969 290.65625 42.929688 C 291.347656 43.066406 292.015625 43.269531 292.660156 43.539062 C 293.308594 43.808594 293.925781 44.136719 294.507812 44.527344 C 295.09375 44.914062 295.632812 45.359375 296.128906 45.855469 C 296.625 46.351562 297.066406 46.890625 297.457031 47.472656 C 297.847656 48.054688 298.175781 48.671875 298.445312 49.320312 C 298.710938 49.96875 298.914062 50.636719 299.050781 51.324219 C 299.1875 52.011719 299.257812 52.707031 299.257812 53.40625 Z M 299.257812 53.40625 " fill-opacity="1" fill-rule="nonzero"/><path fill="#000000" d="M 178.1875 89.011719 C 178.1875 89.710938 178.121094 90.40625 177.984375 91.09375 C 177.847656 91.78125 177.644531 92.449219 177.375 93.097656 C 177.105469 93.746094 176.777344 94.363281 176.386719 94.945312 C 176 95.527344 175.554688 96.066406 175.058594 96.5625 C 174.5625 97.058594 174.023438 97.503906 173.441406 97.890625 C 172.855469 98.28125 172.242188 98.609375 171.59375 98.878906 C 170.945312 99.148438 170.277344 99.351562 169.589844 99.488281 C 168.902344 99.625 168.207031 99.691406 167.503906 99.691406 C 166.804688 99.691406 166.109375 99.625 165.421875 99.488281 C 164.734375 99.351562 164.066406 99.148438 163.417969 98.878906 C 162.769531 98.609375 162.152344 98.28125 161.570312 97.890625 C 160.988281 97.503906 160.449219 97.058594 159.953125 96.5625 C 159.457031 96.066406 159.011719 95.527344 158.625 94.945312 C 158.234375 94.363281 157.90625 93.746094 157.636719 93.097656 C 157.367188 92.449219 157.164062 91.78125 157.027344 91.09375 C 156.890625 90.40625 156.824219 89.710938 156.824219 89.011719 C 156.824219 88.308594 156.890625 87.613281 157.027344 86.925781 C 157.164062 86.238281 157.367188 85.570312 157.636719 84.921875 C 157.90625 84.277344 158.234375 83.660156 158.625 83.078125 C 159.011719 82.492188 159.457031 81.953125 159.953125 81.457031 C 160.449219 80.960938 160.988281 80.519531 161.570312 80.128906 C 162.152344 79.738281 162.769531 79.410156 163.417969 79.144531 C 164.066406 78.875 164.734375 78.671875 165.421875 78.535156 C 166.109375 78.398438 166.804688 78.328125 167.503906 78.328125 C 168.207031 78.328125 168.902344 78.398438 169.589844 78.535156 C 170.277344 78.671875 170.945312 78.875 171.59375 79.144531 C 172.242188 79.410156 172.855469 79.738281 173.441406 80.128906 C 174.023438 80.519531 174.5625 80.960938 175.058594 81.457031 C 175.554688 81.953125 176 82.492188 176.386719 83.078125 C 176.777344 83.660156 177.105469 84.277344 177.375 84.921875 C 177.644531 85.570312 177.847656 86.238281 177.984375 86.925781 C 178.121094 87.613281 178.1875 88.308594 178.1875 89.011719 Z M 178.1875 89.011719 " fill-opacity="1" fill-rule="nonzero"/><path fill="#000000" d="M 21.511719 210.066406 C 21.511719 210.765625 21.441406 211.460938 21.304688 212.148438 C 21.167969 212.835938 20.964844 213.503906 20.699219 214.152344 C 20.429688 214.800781 20.101562 215.417969 19.710938 216 C 19.320312 216.582031 18.878906 217.121094 18.382812 217.617188 C 17.886719 218.113281 17.347656 218.558594 16.761719 218.945312 C 16.179688 219.335938 15.566406 219.664062 14.917969 219.933594 C 14.269531 220.203125 13.601562 220.40625 12.914062 220.542969 C 12.226562 220.679688 11.53125 220.746094 10.828125 220.746094 C 10.128906 220.746094 9.433594 220.679688 8.746094 220.542969 C 8.058594 220.40625 7.390625 220.203125 6.742188 219.933594 C 6.09375 219.664062 5.476562 219.335938 4.894531 218.945312 C 4.3125 218.558594 3.769531 218.113281 3.273438 217.617188 C 2.777344 217.121094 2.335938 216.582031 1.945312 216 C 1.558594 215.417969 1.226562 214.800781 0.960938 214.152344 C 0.691406 213.503906 0.488281 212.835938 0.351562 212.148438 C 0.214844 211.460938 0.144531 210.765625 0.144531 210.066406 C 0.144531 209.363281 0.214844 208.671875 0.351562 207.980469 C 0.488281 207.292969 0.691406 206.625 0.960938 205.976562 C 1.226562 205.332031 1.558594 204.714844 1.945312 204.132812 C 2.335938 203.546875 2.777344 203.007812 3.273438 202.511719 C 3.769531 202.015625 4.3125 201.574219 4.894531 201.183594 C 5.476562 200.796875 6.09375 200.464844 6.742188 200.199219 C 7.390625 199.929688 8.058594 199.726562 8.746094 199.589844 C 9.433594 199.453125 10.128906 199.382812 10.828125 199.382812 C 11.53125 199.382812 12.226562 199.453125 12.914062 199.589844 C 13.601562 199.726562 14.269531 199.929688 14.917969 200.199219 C 15.566406 200.464844 16.179688 200.796875 16.761719 201.183594 C 17.347656 201.574219 17.886719 202.015625 18.382812 202.511719 C 18.878906 203.007812 19.320312 203.546875 19.710938 204.132812 C 20.101562 204.714844 20.429688 205.332031 20.699219 205.976562 C 20.964844 206.625 21.167969 207.292969 21.304688 207.980469 C 21.441406 208.671875 21.511719 209.363281 21.511719 210.066406 Z M 21.511719 210.066406 " fill-opacity="1" fill-rule="nonzero"/></svg>