<svg xmlns="http://www.w3.org/2000/svg" xmlns:xlink="http://www.w3.org/1999/xlink" width="400" zoomAndPan="magnify" viewBox="0 0 810 647.999998" height="400" preserveAspectRatio="xMidYMid meet" version="1.0"><path fill="#3f75ac" d="M 265.640625 305.734375 L 265.640625 455.308594 L 544.386719 455.308594 L 544.386719 305.734375 Z M 323.871094 417.902344 C 320.152344 417.902344 316.785156 415.710938 315.269531 412.316406 L 288.269531 351.828125 C 283.238281 340.546875 300.429688 332.875 305.46875 344.152344 L 323.871094 385.386719 L 342.273438 344.152344 C 347.3125 332.859375 364.503906 340.554688 359.472656 351.828125 L 332.464844 412.316406 C 330.960938 415.71875 327.585938 417.902344 323.871094 417.902344 Z M 387.296875 422.796875 C 373.394531 422.796875 378.675781 402.570312 377.875 385.257812 L 377.890625 347.242188 C 379.332031 335.242188 392.085938 338.398438 405.921875 338.398438 C 443.820312 338.398438 443.808594 395.972656 405.914062 395.972656 C 402.441406 395.972656 399.394531 396.023438 396.710938 396.0625 C 396.710938 407.5 399.433594 422.800781 387.289062 422.800781 Z M 512.527344 415.921875 C 509.6875 415.878906 507.101562 414.753906 505.242188 412.476562 L 471.765625 371.636719 L 471.765625 406.503906 C 471.765625 418.902344 452.929688 418.902344 452.929688 406.503906 L 453.160156 343.03125 C 454.992188 335.734375 465.09375 332.4375 470.601562 340.511719 L 503.113281 380.175781 L 503.113281 345.289062 C 503.113281 332.886719 521.949219 332.890625 521.949219 345.289062 L 521.949219 406.503906 C 521.949219 411.949219 517.578125 415.84375 512.527344 415.925781 Z M 512.527344 415.921875 " fill-opacity="1" fill-rule="evenodd"/><path fill="#000000" d="M 763.316406 648.015625 L 46.707031 648.015625 C 22.695312 648.015625 3.167969 628.488281 3.167969 604.476562 L 3.167969 43.554688 C 3.167969 19.542969 22.695312 0.015625 46.707031 0.015625 L 763.316406 0.015625 C 787.328125 0.015625 806.855469 19.542969 806.855469 43.554688 L 806.855469 604.476562 C 806.855469 628.488281 787.328125 648.015625 763.316406 648.015625 Z M 46.707031 18.855469 C 33.082031 18.855469 22.007812 29.933594 22.007812 43.554688 L 22.007812 604.476562 C 22.007812 618.101562 33.085938 629.175781 46.707031 629.175781 L 763.316406 629.175781 C 776.9375 629.175781 788.011719 618.101562 788.011719 604.476562 L 788.011719 43.554688 C 788.011719 29.933594 776.9375 18.855469 763.3125 18.855469 Z M 46.707031 18.855469 " fill-opacity="1" fill-rule="evenodd"/><path fill="#000000" d="M 797.4375 131.890625 L 12.585938 131.890625 C 0.1875 131.890625 0.1875 113.054688 12.585938 113.054688 L 797.4375 113.054688 C 809.835938 113.054688 809.835938 131.890625 797.4375 131.890625 Z M 797.4375 131.890625 " fill-opacity="1" fill-rule="evenodd"/><path fill="#000000" d="M 720.183594 98.691406 C 677.078125 98.691406 677.078125 33.195312 720.183594 33.195312 C 763.292969 33.195312 763.289062 98.691406 720.183594 98.691406 Z M 720.183594 52.035156 C 701.871094 52.035156 701.871094 79.863281 720.183594 79.863281 C 738.5 79.863281 738.492188 52.035156 720.183594 52.035156 Z M 720.183594 52.035156 " fill-opacity="1" fill-rule="evenodd"/><path fill="#000000" d="M 620.113281 98.691406 C 577.003906 98.691406 577.003906 33.195312 620.113281 33.195312 C 663.226562 33.195312 663.21875 98.691406 620.113281 98.691406 Z M 620.113281 52.035156 C 601.800781 52.035156 601.800781 79.863281 620.113281 79.863281 C 638.425781 79.863281 638.425781 52.035156 620.113281 52.035156 Z M 620.113281 52.035156 " fill-opacity="1" fill-rule="evenodd"/><path fill="#000000" d="M 520.046875 98.691406 C 476.941406 98.691406 476.941406 33.195312 520.046875 33.195312 C 563.148438 33.195312 563.148438 98.691406 520.046875 98.691406 Z M 520.046875 52.035156 C 501.734375 52.035156 501.734375 79.863281 520.046875 79.863281 C 538.355469 79.863281 538.34375 52.035156 520.046875 52.035156 Z M 520.046875 52.035156 " fill-opacity="1" fill-rule="evenodd"/><path fill="#000000" d="M 284.585938 75.363281 L 55.019531 75.363281 C 42.617188 75.363281 42.617188 56.527344 55.019531 56.527344 L 284.585938 56.527344 C 296.976562 56.527344 296.992188 75.363281 284.585938 75.363281 Z M 284.585938 75.363281 " fill-opacity="1" fill-rule="evenodd"/><path fill="#6496af" d="M 22.007812 113.054688 L 788.011719 113.054688 L 788.011719 43.554688 C 788.011719 29.933594 776.9375 18.855469 763.3125 18.855469 L 46.707031 18.855469 C 33.082031 18.855469 22.007812 29.933594 22.007812 43.554688 Z M 520.046875 98.699219 C 476.941406 98.699219 476.941406 33.199219 520.046875 33.199219 C 563.148438 33.199219 563.148438 98.699219 520.046875 98.699219 Z M 284.585938 56.535156 C 296.976562 56.535156 296.992188 75.371094 284.585938 75.371094 L 55.019531 75.371094 C 42.617188 75.371094 42.617188 56.535156 55.019531 56.535156 Z M 620.113281 98.699219 C 577.003906 98.699219 577.003906 33.199219 620.113281 33.199219 C 663.226562 33.199219 663.21875 98.699219 620.113281 98.699219 Z M 720.183594 98.699219 C 677.078125 98.699219 677.078125 33.199219 720.183594 33.199219 C 763.292969 33.199219 763.289062 98.699219 720.183594 98.699219 Z M 720.183594 98.699219 " fill-opacity="1" fill-rule="evenodd"/><path fill="#ffcc00" d="M 520.046875 52.035156 C 501.734375 52.035156 501.734375 79.863281 520.046875 79.863281 C 538.355469 79.863281 538.34375 52.035156 520.046875 52.035156 Z M 520.046875 52.035156 " fill-opacity="1" fill-rule="evenodd"/><path fill="#9cc735" d="M 620.113281 52.035156 C 601.800781 52.035156 601.800781 79.863281 620.113281 79.863281 C 638.425781 79.863281 638.425781 52.035156 620.113281 52.035156 Z M 620.113281 52.035156 " fill-opacity="1" fill-rule="evenodd"/><path fill="#fa3c48" d="M 720.183594 52.035156 C 701.871094 52.035156 701.871094 79.863281 720.183594 79.863281 C 738.5 79.863281 738.492188 52.035156 720.183594 52.035156 Z M 720.183594 52.035156 " fill-opacity="1" fill-rule="evenodd"/><path fill="#000000" d="M 405.015625 589.050781 C 290.035156 589.050781 196.5 495.503906 196.5 380.519531 C 196.5 265.539062 290.039062 172.003906 405.015625 172.003906 C 519.996094 172.003906 613.542969 265.542969 613.542969 380.519531 C 613.542969 495.503906 520 589.050781 405.015625 589.050781 Z M 405.015625 190.84375 C 300.425781 190.84375 215.332031 275.933594 215.332031 380.523438 C 215.332031 485.121094 300.425781 570.210938 405.015625 570.210938 C 509.609375 570.210938 594.699219 485.121094 594.699219 380.523438 C 594.699219 275.933594 509.609375 190.84375 405.015625 190.84375 Z M 405.015625 190.84375 " fill-opacity="1" fill-rule="evenodd"/><path fill="#000000" d="M 604.109375 389.949219 L 553.808594 389.949219 C 541.40625 389.949219 541.410156 371.113281 553.808594 371.113281 L 604.109375 371.113281 C 616.507812 371.113281 616.507812 389.949219 604.109375 389.949219 Z M 256.214844 389.949219 L 205.914062 389.949219 C 193.515625 389.949219 193.515625 371.113281 205.914062 371.113281 L 256.214844 371.113281 C 268.613281 371.113281 268.617188 389.949219 256.214844 389.949219 Z M 256.214844 389.949219 " fill-opacity="1" fill-rule="evenodd"/><path fill="#000000" d="M 323.867188 417.902344 C 320.148438 417.902344 316.78125 415.710938 315.265625 412.316406 L 288.261719 351.828125 C 283.234375 340.546875 300.425781 332.875 305.464844 344.152344 L 323.867188 385.386719 L 342.269531 344.152344 C 347.308594 332.859375 364.5 340.554688 359.46875 351.828125 L 332.460938 412.316406 C 330.953125 415.71875 327.582031 417.902344 323.867188 417.902344 Z M 323.867188 417.902344 " fill-opacity="1" fill-rule="evenodd"/><path fill="#000000" d="M 405.910156 395.96875 C 372.703125 395.96875 377.871094 400.847656 377.871094 347.8125 C 377.871094 335.535156 393.621094 338.394531 405.914062 338.394531 C 443.808594 338.394531 443.800781 395.96875 405.902344 395.96875 Z M 396.699219 377.128906 C 403.28125 377.128906 415.855469 378.75 415.855469 367.179688 C 415.855469 355.613281 403.285156 357.234375 396.699219 357.234375 Z M 396.699219 377.128906 " fill-opacity="1" fill-rule="evenodd"/><path fill="#000000" d="M 387.289062 422.796875 C 382.089844 422.796875 377.871094 418.570312 377.871094 413.375 L 377.871094 347.8125 C 377.871094 335.414062 396.707031 335.421875 396.707031 347.8125 L 396.707031 413.367188 C 396.695312 418.566406 392.484375 422.792969 387.285156 422.792969 Z M 387.289062 422.796875 " fill-opacity="1" fill-rule="evenodd"/><path fill="#000000" d="M 512.523438 415.921875 C 507.324219 415.921875 503.105469 411.695312 503.105469 406.5 L 503.105469 345.285156 C 503.105469 332.882812 521.941406 332.886719 521.941406 345.285156 L 521.941406 406.5 C 521.941406 411.695312 517.714844 415.921875 512.519531 415.921875 Z M 512.523438 415.921875 " fill-opacity="1" fill-rule="evenodd"/><path fill="#000000" d="M 462.339844 415.921875 C 457.140625 415.921875 452.917969 411.695312 452.917969 406.5 L 452.917969 345.285156 C 452.917969 332.882812 471.753906 332.886719 471.753906 345.285156 L 471.753906 406.5 C 471.753906 411.695312 467.535156 415.921875 462.335938 415.921875 Z M 462.339844 415.921875 " fill-opacity="1" fill-rule="evenodd"/><path fill="#000000" d="M 512.523438 415.921875 C 509.796875 415.921875 507.09375 414.738281 505.238281 412.476562 L 455.054688 351.257812 C 447.214844 341.703125 461.789062 329.773438 469.613281 339.316406 L 519.796875 400.539062 C 524.894531 406.75 520.234375 415.925781 512.523438 415.925781 Z M 512.523438 415.921875 " fill-opacity="1" fill-rule="evenodd"/><path fill="#dbe1ec" d="M 405.015625 589.050781 C 290.035156 589.050781 196.5 495.503906 196.5 380.519531 C 196.5 265.539062 290.039062 172.003906 405.015625 172.003906 C 519.996094 172.003906 613.542969 265.542969 613.542969 380.519531 C 613.542969 495.503906 520 589.050781 405.015625 589.050781 Z M 46.710938 629.167969 L 763.320312 629.167969 C 776.941406 629.167969 788.015625 618.097656 788.015625 604.46875 L 788.015625 131.882812 L 22.011719 131.882812 L 22.011719 604.46875 C 22.011719 618.097656 33.089844 629.167969 46.710938 629.167969 Z M 46.710938 629.167969 " fill-opacity="1" fill-rule="evenodd"/><path fill="#000000" d="M 405.015625 589.050781 C 360.585938 589.050781 321.832031 542.246094 303.886719 466.914062 C 302.484375 461.027344 307 455.304688 313.050781 455.304688 L 496.984375 455.300781 C 503.035156 455.300781 507.550781 461.023438 506.152344 466.910156 C 488.195312 542.25 449.445312 589.046875 405.015625 589.046875 Z M 325.222656 474.15625 C 361.109375 601.890625 448.910156 601.890625 484.816406 474.15625 Z M 497.105469 305.738281 L 313.050781 305.738281 C 307.003906 305.738281 302.488281 300.027344 303.886719 294.140625 C 321.839844 218.800781 360.589844 172.007812 405.015625 172.007812 C 449.148438 172.007812 487.679688 218.175781 505.773438 292.625 C 508.332031 300.378906 502.96875 305.742188 497.105469 305.742188 Z M 325.222656 286.898438 L 484.804688 286.898438 C 448.914062 159.167969 361.121094 159.160156 325.222656 286.898438 Z M 325.222656 286.898438 " fill-opacity="1" fill-rule="evenodd"/><path fill="#000000" d="M 405.015625 589.046875 C 399.8125 589.046875 395.59375 584.820312 395.59375 579.625 L 395.59375 464.734375 C 395.59375 452.332031 414.429688 452.34375 414.429688 464.734375 L 414.429688 579.625 C 414.429688 584.824219 410.210938 589.046875 405.007812 589.046875 Z M 405.015625 305.742188 C 399.8125 305.742188 395.59375 301.523438 395.59375 296.324219 L 395.59375 181.429688 C 395.59375 169.027344 414.429688 169.027344 414.429688 181.429688 L 414.429688 296.320312 C 414.429688 301.527344 410.210938 305.75 405.007812 305.75 Z M 405.015625 305.742188 " fill-opacity="1" fill-rule="evenodd"/><path fill="#000000" d="M 553.808594 474.160156 L 256.214844 474.160156 C 251.015625 474.160156 246.796875 469.933594 246.796875 464.738281 L 246.796875 296.324219 C 246.796875 291.125 251.015625 286.902344 256.214844 286.902344 L 553.808594 286.902344 C 559.007812 286.902344 563.226562 291.125 563.226562 296.324219 L 563.226562 464.738281 C 563.226562 469.9375 559.007812 474.160156 553.808594 474.160156 Z M 265.636719 455.3125 L 544.382812 455.3125 L 544.382812 305.738281 L 265.636719 305.738281 Z M 265.636719 455.3125 " fill-opacity="1" fill-rule="evenodd"/><path fill="#3f75ac" d="M 396.699219 377.128906 C 403.28125 377.128906 415.855469 378.75 415.855469 367.179688 C 415.855469 355.613281 403.285156 357.234375 396.699219 357.234375 Z M 396.699219 377.128906 " fill-opacity="1" fill-rule="evenodd"/><path fill="#77b5fe" d="M 414.429688 286.902344 L 484.804688 286.902344 C 468.683594 229.527344 442.089844 197.921875 414.429688 192.09375 Z M 414.429688 286.902344 " fill-opacity="1" fill-rule="evenodd"/><path fill="#77b5fe" d="M 395.59375 286.902344 L 395.59375 192.09375 C 367.9375 197.929688 341.34375 229.53125 325.222656 286.902344 Z M 395.59375 286.902344 " fill-opacity="1" fill-rule="evenodd"/><path fill="#77b5fe" d="M 246.800781 371.113281 L 246.800781 296.324219 C 246.800781 291.125 251.019531 286.902344 256.222656 286.902344 L 305.699219 286.902344 C 315.625 249.097656 330.925781 219.003906 349.542969 199.113281 C 274.800781 222.015625 219.554688 289.9375 215.5625 371.109375 L 246.800781 371.109375 Z M 246.800781 371.113281 " fill-opacity="1" fill-rule="evenodd"/><path fill="#77b5fe" d="M 460.492188 199.121094 C 479.113281 219.007812 494.410156 249.101562 504.328125 286.902344 L 553.808594 286.902344 C 559.007812 286.902344 563.226562 291.125 563.226562 296.324219 L 563.226562 371.113281 L 594.46875 371.113281 C 590.484375 289.945312 535.234375 222.023438 460.496094 199.121094 Z M 460.492188 199.121094 " fill-opacity="1" fill-rule="evenodd"/><path fill="#77b5fe" d="M 594.464844 389.949219 L 563.226562 389.949219 L 563.226562 464.738281 C 563.226562 469.9375 559.007812 474.160156 553.808594 474.160156 L 504.332031 474.160156 C 494.410156 511.957031 479.113281 542.042969 460.496094 561.929688 C 535.230469 539.023438 590.472656 471.113281 594.464844 389.949219 Z M 594.464844 389.949219 " fill-opacity="1" fill-rule="evenodd"/><path fill="#77b5fe" d="M 484.816406 474.160156 L 414.433594 474.160156 L 414.433594 568.972656 C 442.089844 563.136719 468.6875 531.535156 484.816406 474.160156 Z M 484.816406 474.160156 " fill-opacity="1" fill-rule="evenodd"/><path fill="#77b5fe" d="M 395.59375 568.964844 L 395.59375 474.15625 L 325.222656 474.15625 C 341.339844 531.527344 367.9375 563.128906 395.59375 568.964844 Z M 395.59375 568.964844 " fill-opacity="1" fill-rule="evenodd"/><path fill="#77b5fe" d="M 349.53125 561.929688 C 330.917969 542.039062 315.617188 511.953125 305.695312 474.15625 L 256.214844 474.15625 C 251.015625 474.15625 246.796875 469.929688 246.796875 464.734375 L 246.796875 389.945312 L 215.5625 389.945312 C 219.554688 471.113281 274.796875 539.023438 349.53125 561.929688 Z M 349.53125 561.929688 " fill-opacity="1" fill-rule="evenodd"/></svg>